<svg width="24" height="25" viewBox="0 0 24 25" fill="none" xmlns="http://www.w3.org/2000/svg">
<path d="M21.5255 15.066H20.8421V13.8579H21.5255C22.0346 13.8579 22.4488 13.4437 22.4488 12.9346V2.13132C22.4488 1.62222 22.0346 1.20804 21.5255 1.20804H2.13132C1.62222 1.20804 1.20804 1.62222 1.20804 2.13132V12.9346C1.20804 13.4437 1.62222 13.8579 2.13132 13.8579H2.95452V15.066H2.13132C0.956076 15.066 0 14.1099 0 12.9346V2.13132C0 0.956076 0.956076 0 2.13132 0H21.5255C22.7008 0 23.6568 0.956076 23.6568 2.13132V12.9346C23.6568 14.1099 22.7008 15.066 21.5255 15.066Z" fill="#696969"/>
<path d="M5.11835 17.0233C3.72393 17.0233 2.58838 15.8895 2.58838 14.495C2.58838 13.1006 3.72221 11.9668 5.11663 11.9668C6.51105 11.9668 7.64488 13.1006 7.64488 14.495C7.64661 15.8895 6.51105 17.0233 5.11835 17.0233ZM5.11835 13.1731C4.39008 13.1731 3.79814 13.765 3.79814 14.4933C3.79814 15.2216 4.39008 15.8135 5.11835 15.8135C5.84663 15.8135 6.43857 15.2216 6.43857 14.4933C6.43857 13.7668 5.8449 13.1731 5.11835 13.1731Z" fill="#696969"/>
<path d="M11.8249 17.6762C10.0698 17.6762 8.64258 16.2489 8.64258 14.4938C8.64258 12.7387 10.0698 11.3115 11.8249 11.3115C13.58 11.3115 15.0072 12.7387 15.0072 14.4938C15.0072 16.2489 13.58 17.6762 11.8249 17.6762ZM11.8249 12.5213C10.7359 12.5213 9.85062 13.4066 9.85062 14.4956C9.85062 15.5845 10.7359 16.4698 11.8249 16.4698C12.9139 16.4698 13.7992 15.5845 13.7992 14.4956C13.7992 13.4066 12.9139 12.5213 11.8249 12.5213Z" fill="#696969"/>
<path d="M18.5068 17.0233C17.1123 17.0233 15.9785 15.8895 15.9785 14.495C15.9785 13.1006 17.1123 11.9668 18.5068 11.9668C19.9012 11.9668 21.035 13.1006 21.035 14.495C21.035 15.8895 19.8995 17.0233 18.5068 17.0233ZM18.5068 13.1731C17.7785 13.1731 17.1866 13.765 17.1866 14.4933C17.1866 15.2216 17.7785 15.8135 18.5068 15.8135C19.235 15.8135 19.827 15.2216 19.827 14.4933C19.827 13.7668 19.235 13.1731 18.5068 13.1731Z" fill="#696969"/>
<path d="M11.9613 24.8208C10.7291 24.8208 9.58314 24.7362 8.84624 24.6395C7.26716 24.4307 6.34906 23.9751 5.95731 23.2054C5.71397 22.7257 5.74849 22.2718 5.76402 22.0768V22.0716C5.85721 20.8826 6.79603 19.7435 8.4079 18.8651C11.4918 17.186 14.7674 18.6391 15.1298 18.8099C16.053 19.2448 16.7623 19.8264 17.2352 20.5339C18.1447 21.8956 18.0152 22.7792 17.746 23.2831C17.5907 23.573 17.3526 23.8095 17.035 23.9872C15.896 24.6257 13.8303 24.8208 11.9613 24.8208ZM6.96688 22.1648V22.1682C6.95825 22.2925 6.94272 22.4789 7.03246 22.6566C7.21884 23.0242 7.90052 23.2952 9.00329 23.4401C11.1657 23.7249 15.059 23.7094 16.4413 22.9328C16.5587 22.8672 16.6346 22.7964 16.6795 22.7119C16.7986 22.4875 16.7434 21.975 16.2291 21.2053C15.8787 20.6824 15.3351 20.244 14.612 19.9023C14.3048 19.7574 11.5453 18.5303 8.98258 19.9247C7.76073 20.5926 7.02728 21.4072 6.96688 22.1648Z" fill="#696969"/>
<path d="M18.5692 23.4771C17.91 23.4771 17.3836 23.4478 17.1627 23.4322L17.2438 22.2276C19.0076 22.345 21.17 22.2449 22.0294 21.7531C22.0984 21.7134 22.1416 21.6754 22.1657 21.6288C22.2261 21.5149 22.2192 21.1594 21.8206 20.5502C21.56 20.1533 21.1544 19.8202 20.6143 19.5596C20.3813 19.4474 18.2914 18.5 16.3568 19.5751C16.2584 19.6304 15.9944 19.7771 15.7096 19.998L14.9658 19.0453C15.3248 18.7658 15.6475 18.5863 15.77 18.519C18.2361 17.1487 20.8472 18.3326 21.1372 18.4724C21.8792 18.8296 22.4487 19.3059 22.8301 19.8875C23.5705 21.0179 23.4583 21.7634 23.234 22.1897C23.1011 22.4416 22.8975 22.647 22.63 22.8006C21.6463 23.3632 19.8566 23.4771 18.5692 23.4771Z" fill="#696969"/>
<path d="M5.28068 23.952C4.27111 23.952 3.34955 23.8847 2.74898 23.8087C1.40116 23.6379 0.646995 23.2703 0.301841 22.6197C0.0826687 22.2055 0.113732 21.8189 0.127539 21.6532C0.206924 20.6661 0.999051 19.7325 2.35723 19.0214C4.92172 17.6788 7.63808 18.8385 7.94009 18.9766C8.1213 19.0594 8.2956 19.1492 8.45782 19.2441L7.84517 20.2847C7.72092 20.2122 7.58458 20.1415 7.44307 20.0759C7.19629 19.9637 4.97522 19.0163 2.91983 20.0914C1.97066 20.5884 1.37872 21.2063 1.33558 21.7464C1.32867 21.8344 1.31832 21.9518 1.37354 22.0536C1.44948 22.1986 1.75149 22.4626 2.9043 22.6093C3.79997 22.7232 5.31002 22.794 6.66302 22.6956L6.75104 23.9002C6.25402 23.9364 5.75699 23.952 5.28068 23.952Z" fill="#696969"/>
</svg>
