<svg width="25" height="25" viewBox="0 0 25 25" fill="none" xmlns="http://www.w3.org/2000/svg">
<path d="M1.5 1.5H6.5L7.5 0.5H16.5L17.5 1V6.5L17 7.5H14L12 9.5L10.5 7.5H8C6.8 7.5 6.5 7.16667 6.5 7L4 10.5L2.5 8.5H1C0 8.5 0.5 5.5 0.5 3.5C0.5 1.9 1.16667 1.5 1.5 1.5Z" fill="white"/>
<path d="M17.5 7L20 10.5L21.5 8.5H22.5L23.5 8V2.5L22.5 1.5H17.5V7Z" fill="white"/>
<path d="M7 21.5H0.5V19.5L2 18.5H5.5C7.5 18.5 8 19.5 8 20L8.5 19.5H15L16.5 20C16.5 18.8 17.8333 18.5 18.5 18.5H22L23.5 19.5V21.5H17V23.5H7V21.5Z" fill="white"/>
<ellipse cx="12" cy="14.5" rx="2" ry="2.5" fill="white"/>
<circle cx="4" cy="15" r="1" fill="white"/>
<circle cx="20" cy="15" r="1" fill="white"/>
<path d="M13.9818 8.00578C13.9246 8.06851 13.8803 8.11647 13.8379 8.16629C13.3914 8.67732 12.9432 9.18835 12.4967 9.69754C12.4543 9.74735 12.4119 9.79717 12.3658 9.84329C12.1573 10.0573 11.816 10.0444 11.626 9.82115C11.5781 9.7658 11.5356 9.70492 11.4914 9.64588C11.1279 9.16252 10.7664 8.67732 10.403 8.19396C10.355 8.12939 10.3144 8.05559 10.2296 8.00209C10.1521 8.00209 10.0635 8.00025 9.97314 8.00025C9.18912 8.00025 8.40326 8.00025 7.61924 8.00025C7.47166 8.00025 7.32593 7.99102 7.1802 7.95966C6.54745 7.82129 6.11578 7.2955 6.03092 6.75679C6.01247 6.64426 6.0014 6.52987 6.0014 6.41549C6.0014 4.8049 6.0014 3.19432 6.0014 1.58373C6.0014 1.39371 6.01985 1.20738 6.08257 1.02842C6.27996 0.473111 6.67289 0.141031 7.24661 0.0174239C7.30933 0.00450972 7.37574 0.00266484 7.44215 0.000819949C7.52332 -0.00102494 7.60449 0.000819949 7.6875 0.000819949C10.5653 0.000819949 13.4431 0.000819949 16.3209 0.000819949C16.4021 0.000819949 16.4851 0.000819949 16.5663 0.00266484C17.2027 0.0137342 17.8299 0.49156 17.9738 1.19262C17.9996 1.32176 18.0107 1.4509 18.0088 1.58189C18.007 2.21099 18.0088 2.84194 18.0088 3.47105C18.0088 4.44331 18.0088 5.41741 18.0088 6.38966C18.0088 6.52803 18.0015 6.66639 17.9738 6.80476C17.8613 7.37483 17.389 7.8545 16.8116 7.96704C16.6732 7.99471 16.5367 8.00394 16.3965 8.00394C15.6845 8.00394 14.9742 8.00394 14.2622 8.00394C14.1736 8.00209 14.0832 8.00578 13.9818 8.00578ZM12.0116 0.997059C10.5801 0.997059 9.14854 0.997059 7.71702 0.997059C7.64323 0.997059 7.56944 0.995214 7.49565 0.998903C7.19864 1.01551 7.00679 1.24981 7.00863 1.4878C7.00863 1.54499 7.00679 1.60218 7.00679 1.65937C7.00679 3.22199 7.00679 4.78461 7.00679 6.34723C7.00679 6.40442 7.00863 6.46161 7.00863 6.5188C7.00679 6.74572 7.20049 6.98556 7.4772 6.99294C7.55837 6.99478 7.64138 6.99663 7.72255 6.99663C8.58958 6.99663 9.45661 6.99663 10.3236 6.99663C10.4048 6.99663 10.4878 6.99847 10.569 7.00585C10.6963 7.01877 10.8014 7.07965 10.8844 7.17743C10.9269 7.22724 10.9656 7.28074 11.0044 7.3324C11.3032 7.73089 11.6039 8.13123 11.9027 8.52973C11.9378 8.57585 11.9747 8.61828 12.0153 8.65887C12.0226 8.66625 12.0503 8.6681 12.0577 8.66072C12.0946 8.62935 12.1296 8.5943 12.161 8.5574C12.517 8.15153 12.8712 7.74565 13.2273 7.33793C13.2752 7.28259 13.325 7.22724 13.373 7.17189C13.4708 7.0612 13.5962 7.0077 13.7401 7.00032C13.8139 6.99663 13.8877 6.99663 13.9615 6.99663C14.7473 6.99663 15.5314 6.99663 16.3172 6.99663C16.3984 6.99663 16.4814 6.99294 16.5626 6.98925C16.7729 6.97633 16.9776 6.78262 16.9924 6.5557C16.9961 6.49851 16.9979 6.44132 16.9979 6.38413C16.9979 4.79752 16.9979 3.21092 16.9979 1.62432C16.9979 1.55975 16.9979 1.49333 16.9887 1.42876C16.9647 1.24243 16.8577 1.11513 16.688 1.04134C16.6327 1.01366 16.5699 0.997059 16.5017 0.997059C16.4279 0.997059 16.3541 0.997059 16.2803 0.997059C14.858 0.997059 13.4357 0.997059 12.0116 0.997059Z" fill="#696969"/>
<path d="M12.0021 19.9952C11.0447 19.9952 10.0873 19.9952 9.1317 19.9952C9.00073 19.9952 8.87159 20.0044 8.74062 20.0265C8.22593 20.1095 7.72047 20.5117 7.55814 21.1095C7.5194 21.2534 7.50648 21.3991 7.50648 21.5467C7.50648 21.9876 7.50648 22.4304 7.50648 22.8713C7.50648 23.0761 7.50464 23.2809 7.50648 23.4857C7.50648 23.5705 7.48804 23.648 7.45114 23.7218C7.33861 23.9506 7.09511 24.0207 6.94568 23.9967C6.72247 23.9635 6.55091 23.8012 6.5177 23.5835C6.50848 23.5189 6.50479 23.4525 6.50479 23.3879C6.50479 22.7736 6.50294 22.1611 6.50479 21.5467C6.50479 21.1999 6.56013 20.8623 6.6948 20.5412C7.07297 19.6428 7.86067 19.152 8.56352 19.0358C8.69265 19.0137 8.82179 18.9989 8.95276 18.9971C9.03393 18.9971 9.11694 18.9971 9.19811 18.9971C11.0705 18.9971 12.9448 18.9971 14.8172 18.9971C14.891 18.9971 14.9648 18.9971 15.0386 18.9971C16.1288 19.0008 17.2043 19.7701 17.4589 21.0154C17.4939 21.1833 17.5087 21.3548 17.5087 21.5283C17.5068 22.15 17.5087 22.7717 17.5087 23.3934C17.5087 23.4746 17.505 23.5558 17.4829 23.637C17.4257 23.8473 17.2264 23.993 17.0106 23.9986C16.8058 24.0041 16.6085 23.8657 16.5384 23.6683C16.5199 23.6148 16.5088 23.5576 16.5033 23.5004C16.4978 23.4359 16.5015 23.3695 16.5015 23.3049C16.5015 22.7237 16.5015 22.1426 16.5015 21.5633C16.5015 21.3991 16.4922 21.2368 16.4443 21.0781C16.2598 20.4564 15.7322 20.0948 15.2636 20.0228C15.1345 20.0025 15.0035 19.9933 14.8725 19.9933C13.917 19.9952 12.9595 19.9952 12.0021 19.9952Z" fill="#696969"/>
<path d="M0.00377607 4.98934C0.00377607 4.18866 0.00377607 3.38614 0.00377607 2.58546C0.00377607 2.44524 0.0129998 2.30872 0.0425157 2.1722C0.166114 1.60029 0.642058 1.14091 1.20102 1.03391C1.30617 1.01361 1.40947 0.997009 1.51647 0.997009C2.15475 0.998854 2.79303 0.997009 3.42947 0.997009C3.51063 0.997009 3.5918 1.0007 3.67113 1.03022C3.87774 1.1077 3.99027 1.26083 4.00318 1.47483C4.01609 1.67962 3.92386 1.83828 3.74307 1.93975C3.66928 1.98033 3.58996 1.99509 3.50695 2.00247C3.44238 2.00801 3.37597 2.00616 3.3114 2.00616C2.76351 2.00616 2.21562 2.00616 1.66774 2.00616C1.58657 2.00616 1.50355 2.00616 1.42238 2.01539C1.225 2.03937 1.06081 2.19987 1.02392 2.39728C1.01654 2.43787 1.01285 2.47845 1.00916 2.51904C1.00732 2.55225 1.00732 2.58361 1.00732 2.61682C1.00732 4.20342 1.00732 5.79002 1.00732 7.37663C1.00732 7.43382 1.00916 7.49101 1.01285 7.5482C1.02945 7.77143 1.19548 7.96145 1.45743 7.99835C1.51462 8.00573 1.57181 8.00389 1.629 8.00389C1.81716 8.00389 2.00532 8.01127 2.19349 8.00204C2.39825 7.99282 2.55321 8.07584 2.68419 8.22896C3.0476 8.65144 3.41471 9.06839 3.78181 9.48533C3.82978 9.54068 3.87958 9.59418 3.92939 9.64952C3.95153 9.67351 3.99396 9.66982 4.01425 9.64214C4.11387 9.51116 4.21164 9.38017 4.30941 9.25103C4.34815 9.19937 4.38504 9.14403 4.43116 9.0979C4.5769 8.95216 4.75215 8.90235 4.94769 8.96876C5.15246 9.03887 5.26499 9.19199 5.29081 9.406C5.30188 9.50747 5.27421 9.60156 5.2244 9.68827C5.19673 9.73808 5.16168 9.7842 5.12663 9.83032C4.90711 10.1255 4.68758 10.4207 4.46621 10.7159C4.43116 10.762 4.39796 10.8081 4.35737 10.8487C4.16921 11.0443 3.87405 11.0553 3.67113 10.8764C3.61025 10.8229 3.5586 10.7583 3.5051 10.6974C3.07343 10.2048 2.64361 9.71225 2.21194 9.21967C2.17873 9.18277 2.14368 9.14772 2.11601 9.10897C2.05698 9.03149 1.98503 8.99459 1.88542 9.00012C1.74706 9.0075 1.60686 9.00012 1.4685 9.00012C0.909545 9.00197 0.295246 8.6293 0.0794106 7.97806C0.025913 7.81386 -0.00175816 7.64598 8.65853e-05 7.47256C0.00193133 7.07222 8.65853e-05 6.67188 8.65853e-05 6.26969C0.00377607 5.83984 0.00377607 5.41367 0.00377607 4.98934Z" fill="#696969"/>
<path d="M12.0041 17.4957C10.4582 17.516 9.01004 16.2596 9.00635 14.5033C9.00267 12.7912 10.3954 11.4906 12.0188 11.498C13.6348 11.5053 15.011 12.8041 15.0055 14.507C14.9999 16.267 13.5481 17.516 12.0041 17.4957ZM14.0001 14.5107C14.0222 13.4665 13.1644 12.5071 12.017 12.5016C10.8548 12.496 10.0117 13.4554 10.0062 14.4867C10.0007 15.5401 10.8493 16.4884 11.993 16.4958C13.1294 16.505 14.0093 15.5678 14.0001 14.5107Z" fill="#696969"/>
<path d="M24.0039 5.01879C24.0039 5.82131 24.0039 6.62199 24.0039 7.42452C24.0039 7.58133 23.9983 7.73446 23.9522 7.88574C23.7696 8.49086 23.3656 8.85246 22.7495 8.97976C22.6628 8.99821 22.5705 8.99452 22.4801 8.99636C22.3418 9.00005 22.2016 8.99821 22.0632 8.99821C22.0097 8.99821 21.9673 9.0185 21.9341 9.05724C21.864 9.13657 21.792 9.2159 21.7219 9.29523C21.3124 9.76199 20.9029 10.2306 20.4933 10.6992C20.4454 10.7545 20.3974 10.8117 20.3439 10.8615C20.1373 11.0553 19.8348 11.046 19.6392 10.8431C19.6115 10.8136 19.5857 10.7804 19.5617 10.749C19.3219 10.428 19.0821 10.107 18.8423 9.78597C18.7888 9.71402 18.7464 9.63469 18.7224 9.54614C18.6615 9.32475 18.8109 8.98529 19.154 8.9447C19.3293 8.92441 19.4769 8.98529 19.5912 9.11812C19.6392 9.17347 19.6816 9.23435 19.7259 9.29339C19.8145 9.40961 19.903 9.52769 19.9934 9.64392C20.0155 9.67159 20.0524 9.67159 20.0783 9.64576C20.1281 9.59226 20.1779 9.53691 20.2258 9.48157C20.5763 9.08123 20.925 8.68089 21.2755 8.28054C21.3124 8.23811 21.3493 8.19383 21.3899 8.15325C21.4858 8.05731 21.602 8.00197 21.7404 8.00381C21.9359 8.00381 22.1333 8.00381 22.3289 8.00381C22.3934 8.00381 22.4598 8.00566 22.5244 8.00012C22.7697 7.97798 22.9487 7.81194 22.9911 7.56842C22.9985 7.52783 22.9985 7.48724 23.0003 7.44666C23.0022 7.39684 23.0003 7.34888 23.0003 7.29907C23.0003 5.76966 23.0003 4.24024 23.0003 2.71083C23.0003 2.63704 23.0022 2.56324 22.9966 2.48945C22.9874 2.37322 22.9505 2.26622 22.8712 2.17582C22.7863 2.07988 22.683 2.019 22.5539 2.01162C22.4801 2.00793 22.4063 2.00609 22.3325 2.00609C21.768 2.00609 21.2036 2.00609 20.6391 2.00609C20.5487 2.00609 20.4601 2.00609 20.3716 1.98395C20.1742 1.93229 20.0285 1.76994 20.0045 1.57069C19.9786 1.35484 20.0709 1.16482 20.2664 1.05966C20.331 1.02461 20.4029 1.00247 20.4767 1.00062C20.5173 1.00062 20.5579 0.998779 20.5985 0.998779C21.2128 0.998779 21.8252 1.00062 22.4395 0.998779C22.6056 0.998779 22.7661 1.01907 22.9229 1.0652C23.5999 1.26998 23.9891 1.88432 23.991 2.471C23.991 2.54479 23.991 2.61859 23.991 2.69238C24.0039 3.46539 24.0039 4.24209 24.0039 5.01879Z" fill="#696969"/>
<path d="M3.99757 13.0019C5.09335 12.9834 5.99912 13.9003 6.00465 14.9851C6.01203 16.092 5.09888 16.9887 4.02524 16.9997C2.92024 17.009 2.00525 16.0976 2.00525 15.0017C2.00525 13.9151 2.90179 12.9926 3.99757 13.0019ZM4.00126 13.9999C3.49949 14.0018 3.00694 14.3966 3.00694 15.0036C3.00694 15.5626 3.45153 16.0016 4.00864 15.998C4.62294 15.9943 5.00665 15.4888 5.0048 14.9962C5.00111 14.4483 4.55468 13.9999 4.00126 13.9999Z" fill="#696969"/>
<path d="M22.0004 15.0108C22.0078 16.1121 21.0799 17.0032 19.9989 16.9995C18.9068 16.9958 17.9918 16.0845 18.0047 14.9757C18.0158 13.902 18.9142 12.9906 20.0229 12.9998C21.0965 13.0072 22.0207 13.9038 22.0004 15.0108ZM20.0118 13.9998C19.5082 13.9961 19.0138 14.3872 19.0064 14.9923C19.0009 15.5421 19.4307 15.9941 19.997 15.9978C20.5947 16.0015 21.0006 15.5162 21.0024 15.0071C21.008 14.4628 20.5689 14.0071 20.0118 13.9998Z" fill="#696969"/>
<path d="M3.89273 17.9995C4.37605 17.9995 4.85753 17.9995 5.34085 17.9995C5.41464 17.9995 5.48843 18.0013 5.56222 18.0069C5.79466 18.0216 5.99758 18.232 6.00312 18.4829C6.01049 18.7946 5.75961 18.9939 5.52164 18.9994C5.44785 19.0013 5.37406 19.0013 5.30027 19.0013C4.39265 19.0013 3.48504 19.0013 2.57743 19.0013C2.42985 19.0013 2.28411 19.0105 2.14022 19.0474C1.46873 19.2171 1.06474 19.802 1.02046 20.3333C1.01308 20.4237 1.00939 20.5122 1.00755 20.6026C1.0057 20.8554 1.00755 21.11 1.0057 21.3627C1.0057 21.4365 1.00386 21.5103 0.99279 21.5823C0.955895 21.8295 0.745595 22.0011 0.492865 21.9974C0.249358 21.9937 0.0372128 21.8055 0.00769689 21.562C0.00216266 21.514 0.00216266 21.4642 0.00216266 21.4144C0.00216266 21.1044 0.000317916 20.7927 0.00216266 20.4827C0.00954164 19.3167 0.835987 18.2596 2.0775 18.0364C2.24537 18.0069 2.41878 18.0032 2.59034 18.0013C3.0257 17.9958 3.45921 17.9995 3.89273 17.9995Z" fill="#696969"/>
<path d="M20.1242 17.9992C20.5577 17.9992 20.9912 17.9992 21.4247 17.9992C21.6535 17.9992 21.8822 18.014 22.1055 18.0712C23.1127 18.3239 23.7971 19.1449 23.9594 20.0267C23.9834 20.1559 24.0037 20.285 24.0037 20.416C24.0037 20.7684 24.0037 21.1189 24.0055 21.4713C24.0055 21.5543 23.9963 21.6336 23.9594 21.7093C23.8617 21.903 23.703 22.0045 23.4872 21.9971C23.2806 21.9897 23.133 21.8808 23.05 21.6945C23.0297 21.6502 23.0204 21.6004 23.0168 21.5525C23.0112 21.4879 23.0131 21.4215 23.0112 21.3569C23.0112 21.0875 23.0112 20.8163 23.0112 20.547C23.0112 20.357 22.9836 20.1725 22.919 19.9935C22.6958 19.381 22.1276 19.0157 21.5539 19.0047C21.4801 19.0028 21.4063 19.0028 21.3325 19.0028C20.4489 19.0028 19.5652 19.0028 18.6835 19.0028C18.6097 19.0028 18.5359 19.0047 18.4621 18.9991C18.2647 18.9825 18.0839 18.8386 18.0304 18.6486C17.9825 18.4752 18.0046 18.2722 18.1909 18.1173C18.261 18.0582 18.3422 18.0195 18.4344 18.0121C18.5156 18.0066 18.5968 18.0029 18.6798 18.0029C19.1576 17.9992 19.6409 17.9992 20.1242 17.9992Z" fill="#696969"/>
</svg>
