<svg width="29" height="24" viewBox="0 0 29 24" fill="none" xmlns="http://www.w3.org/2000/svg">
<path d="M7.5 0.5V11.5C3 11 2.5 13 2.5 15C2.5 16.6 3.5 17.3333 4 17.5V19C1.2 19.4 0.5 22.1667 0.5 23.5H28.5C28.5 20.3 25.8333 18.8333 24.5 18.5L25 17.5C25.5 17.3333 26.5 16.4 26.5 14C26.5 11.6 22.8333 11 21 11V0.5H7.5Z" fill="white"/>
<path d="M11.1332 15.3149C11.0577 15.26 10.998 15.2157 10.94 15.1715C10.6185 14.9183 10.3971 14.5978 10.283 14.2012C10.0247 13.2982 10.4815 12.3298 11.3546 11.9704C11.4442 11.9332 11.5443 11.9172 11.6216 11.8464C11.6374 11.8323 11.6673 11.8269 11.6919 11.8252C11.9379 11.8039 12.1838 11.7845 12.4298 11.765C12.4965 11.7597 12.5598 11.7614 12.6212 11.7986C12.6722 11.8305 12.7337 11.8181 12.7917 11.8181C13.1869 11.8181 13.5822 11.8199 13.9775 11.8181C14.1338 11.8181 14.2884 11.8252 14.4448 11.8482C14.6328 11.8748 14.8225 11.8871 15.0105 11.8995C15.1264 11.9066 15.2389 11.9314 15.3495 11.9668C16.5319 12.3369 17.3347 13.316 17.5666 14.3694C17.6228 14.6297 17.6527 14.8935 17.6527 15.1591C17.6527 15.8655 17.6527 16.5702 17.6527 17.2766C17.6527 17.358 17.6386 17.443 17.6755 17.5245C17.7388 17.5581 17.8073 17.59 17.8705 17.6289C18.3765 17.937 18.6084 18.392 18.5733 18.9852C18.5575 19.2614 18.4889 19.5252 18.3765 19.7783C18.3572 19.8226 18.3396 19.8686 18.3203 19.9147C18.3414 19.9465 18.3572 19.9766 18.3783 20.0014C18.6084 20.2741 18.8069 20.5698 18.9721 20.8867C18.9826 20.9079 18.9984 20.9292 19.0125 20.9487C19.0248 20.9681 19.0634 20.9681 19.0757 20.9487C19.1179 20.8778 19.1583 20.8052 19.1987 20.7344C19.6484 19.9536 20.2651 19.3481 21.0556 18.9214C21.3613 18.755 21.6828 18.6275 22.0183 18.539C22.0974 18.5177 22.1764 18.4965 22.2537 18.4699C22.2713 18.4646 22.2871 18.4328 22.2906 18.4115C22.2924 18.3903 22.2819 18.3619 22.2678 18.346C22.252 18.3283 22.2274 18.3177 22.2046 18.3106C22.1343 18.2876 22.0605 18.2716 21.992 18.2451C21.2014 17.9441 20.7025 17.3775 20.497 16.5525C20.453 16.3754 20.4355 16.193 20.4355 16.0089C20.4372 15.5521 20.4372 15.0953 20.4355 14.6385C20.4355 14.5553 20.432 14.4739 20.432 14.4013C20.3863 14.3234 20.3142 14.2951 20.2563 14.249C19.9611 14.0206 19.745 13.7338 19.6186 13.3815C19.5465 13.1849 19.5131 12.9796 19.5096 12.7724C19.5044 12.4661 19.5079 12.158 19.5079 11.8517C19.5079 11.726 19.529 11.6039 19.5746 11.487C19.6888 11.1984 19.8979 11.0125 20.193 10.9258C20.2563 10.9081 20.3195 10.8957 20.3722 10.8496C20.3951 10.8301 20.4337 10.8248 20.4636 10.8231C20.7851 10.8142 21.1066 10.8054 21.4263 10.8C21.4579 10.8 21.5001 10.8036 21.5194 10.8231C21.5879 10.8886 21.6705 10.8815 21.7513 10.8815C22.2133 10.8815 22.6736 10.878 23.1357 10.8833C23.5749 10.8868 24.0035 10.9594 24.4199 11.1081C25.618 11.5313 26.6071 12.6113 26.8671 13.9498C26.9444 14.3517 26.9655 14.7536 26.9215 15.1626C26.8688 15.6477 26.7371 16.1045 26.5175 16.5383C26.4314 16.7083 26.3506 16.8818 26.2627 17.05C26.0906 17.3758 25.8376 17.6165 25.5021 17.767C25.4265 17.8007 25.3475 17.8237 25.2702 17.8503C25.2157 17.8697 25.1612 17.8857 25.0998 17.9051C25.0945 17.9388 25.0839 17.9706 25.0839 18.0025C25.0839 18.1353 25.0839 18.2681 25.0875 18.4009C25.0875 18.4416 25.1191 18.477 25.163 18.4876C25.3387 18.5301 25.5126 18.5797 25.6848 18.6399C27.2501 19.1888 28.3744 20.5361 28.6959 22.0641C28.7556 22.3491 28.7943 22.636 28.7978 22.9281C28.8013 23.2344 28.7996 23.5425 28.7996 23.8488C28.7996 23.8736 28.796 23.8983 28.7943 23.9231C28.7925 23.9479 28.7539 23.9886 28.731 23.9922C28.6977 23.9957 28.666 23.9993 28.6327 23.9993C28.5501 24.001 28.4675 23.9993 28.385 23.9993C19.0599 23.9993 9.73483 23.9993 0.409772 23.9993C0.302608 23.9993 0.195443 23.9975 0.0882789 23.994C0.0426022 23.9922 0.00746637 23.9603 0.00395279 23.9196C0.00219599 23.9037 0.000439198 23.8859 0.000439198 23.87C0.00219599 23.5212 -0.00483118 23.1724 0.00746637 22.8236C0.0355751 22.0358 0.260445 21.3028 0.671534 20.6335C1.3233 19.5712 2.25089 18.8701 3.44903 18.5337C3.74065 18.4522 3.71606 18.5301 3.71606 18.1973C3.71606 18.107 3.71254 18.0149 3.71254 17.937C3.66335 17.8768 3.60538 17.8697 3.55092 17.8556C3.41389 17.8219 3.28564 17.767 3.16267 17.698C2.89739 17.5475 2.68833 17.3386 2.54779 17.0677C2.41779 16.818 2.2913 16.5666 2.17711 16.3081C1.93467 15.761 1.8275 15.1839 1.85913 14.5854C1.91183 13.5833 2.28427 12.7193 2.98523 12.0022C3.06604 11.9208 3.15915 11.85 3.21889 11.7473C3.23821 11.7136 3.27686 11.6906 3.312 11.6676C3.73538 11.4073 4.17809 11.1896 4.64716 11.0267C4.82811 10.9647 5.01609 10.9435 5.20406 10.9258C5.33582 10.9134 5.46582 10.901 5.59758 10.8903C5.66259 10.885 5.72934 10.8815 5.79435 10.8815C6.33017 10.8815 6.86599 10.8815 7.40005 10.8815C7.59857 10.8815 7.79533 10.9081 7.98331 10.9718C8.65265 11.2002 9.07077 11.6641 9.24645 12.3528C9.38348 13.1053 9.16563 13.7285 8.58062 14.2189C8.51738 14.272 8.44886 14.3181 8.38913 14.3623C8.35048 14.4314 8.36278 14.5004 8.36278 14.5642C8.36102 15.0458 8.36102 15.5273 8.36278 16.0089C8.36278 16.2692 8.32764 16.5224 8.24156 16.7667C7.98682 17.5032 7.49141 18.0025 6.76058 18.2592C6.70612 18.2787 6.6499 18.2911 6.59544 18.3088C6.57261 18.3159 6.54625 18.3265 6.5322 18.3442C6.51814 18.3602 6.50585 18.3885 6.50936 18.4097C6.51112 18.431 6.52693 18.4575 6.54625 18.4699C6.5726 18.4859 6.60774 18.4912 6.63936 18.5C6.90288 18.5673 7.16289 18.6488 7.41235 18.7603C8.35399 19.1799 9.08306 19.8403 9.60132 20.7362C9.64348 20.807 9.68389 20.8796 9.72429 20.9504C9.73659 20.9717 9.77524 20.9699 9.78754 20.9487C9.8174 20.8991 9.84551 20.8495 9.87538 20.7982C10.3357 19.9713 10.9822 19.3393 11.8131 18.8984C11.857 18.8754 11.901 18.8541 11.9449 18.8293C11.9765 18.8134 11.9853 18.7674 11.9642 18.7461C11.9185 18.6983 11.8693 18.6541 11.8237 18.6063C11.3827 18.1512 11.1543 17.6059 11.1473 16.9721C11.142 16.5064 11.1455 16.0426 11.1455 15.5769C11.1368 15.4937 11.135 15.4105 11.1332 15.3149ZM23.6697 23.0609C24.9539 23.0609 26.2382 23.0609 27.5206 23.0609C27.6032 23.0609 27.6858 23.0609 27.7683 23.0591C27.7841 23.0591 27.8017 23.0573 27.8158 23.0485C27.8298 23.0414 27.8439 23.0272 27.8491 23.0131C27.8579 22.9901 27.8632 22.9653 27.8632 22.9405C27.8456 22.3845 27.7139 21.8587 27.4644 21.363C26.8917 20.2263 25.6883 19.3233 24.1704 19.3127C23.8489 19.3109 23.5292 19.3109 23.2077 19.3127C22.9354 19.3145 22.6648 19.341 22.3996 19.403C20.7745 19.7837 19.5694 21.2036 19.5079 22.9352C19.5079 22.9511 19.5096 22.9688 19.5114 22.9848C19.5131 23.0095 19.55 23.052 19.5746 23.052C19.6572 23.0556 19.7398 23.0591 19.8206 23.0591C21.103 23.0627 22.3873 23.0609 23.6697 23.0609ZM5.08636 23.0609C6.37057 23.0609 7.65479 23.0609 8.93725 23.0609C9.01982 23.0609 9.10239 23.0609 9.18496 23.0591C9.20077 23.0591 9.21834 23.0556 9.23239 23.0485C9.24645 23.0414 9.25874 23.0272 9.26577 23.0131C9.27455 22.9901 9.28158 22.9653 9.27982 22.9405C9.2605 22.3845 9.12874 21.8587 8.87928 21.363C8.3048 20.221 7.09789 19.3233 5.58529 19.3127C5.26379 19.3109 4.94406 19.3109 4.62256 19.3127C4.35026 19.3145 4.07971 19.341 3.81444 19.403C2.17359 19.7872 0.98073 21.2231 0.922756 22.9352C0.922756 22.9511 0.924513 22.9688 0.92627 22.9848C0.928026 23.0095 0.964919 23.052 0.989514 23.052C1.07208 23.0556 1.15465 23.0591 1.23547 23.0591C2.51792 23.0627 3.80214 23.0609 5.08636 23.0609ZM17.7001 20.6725C17.6123 20.7309 17.5455 20.7805 17.477 20.823C16.892 21.1859 16.2701 21.2797 15.606 21.0921C14.8664 20.8831 14.2656 20.2829 14.0425 19.5623C14.0232 19.4986 14.0056 19.4349 13.9828 19.3729C13.9757 19.3534 13.9494 19.3357 13.9283 19.3286C13.8984 19.3198 13.8633 19.3162 13.8317 19.318C13.5102 19.3269 13.194 19.3747 12.883 19.465C11.6656 19.8208 10.5201 20.8796 10.2584 22.4766C10.232 22.6395 10.2285 22.8059 10.218 22.9724C10.2144 23.0131 10.2531 23.0556 10.2917 23.0573C10.3743 23.0591 10.4569 23.0627 10.5377 23.0627C13.1131 23.0627 15.6886 23.0627 18.2641 23.0627C18.322 23.0627 18.38 23.0627 18.4362 23.0627C18.4608 23.0627 18.4854 23.0591 18.51 23.0573C18.5329 23.0556 18.568 23.0131 18.5697 22.9865C18.5697 22.9706 18.5733 22.9529 18.5715 22.937C18.5575 22.7298 18.5434 22.5244 18.5012 22.319C18.3835 21.7401 18.1446 21.2178 17.7827 20.7539C17.7616 20.7273 17.737 20.7079 17.7001 20.6725ZM13.9599 13.7161C13.9757 13.7108 13.9915 13.7019 14.0074 13.7019C14.2621 13.7019 14.5168 13.7019 14.7733 13.7019C14.819 13.7019 14.8489 13.7373 14.8489 13.7798C14.8524 13.9834 14.7997 14.1747 14.7294 14.3606C14.7066 14.4225 14.6749 14.481 14.6503 14.5429C14.638 14.5748 14.6398 14.6084 14.6521 14.6403C14.6679 14.6775 14.6855 14.7164 14.703 14.7536C14.7979 14.9678 14.8489 15.1927 14.8541 15.4282C14.8559 15.5114 14.8559 15.5946 14.8559 15.6778C14.8559 16.6817 14.8559 17.6856 14.8559 18.6895C14.8559 18.8134 14.8612 18.9373 14.8787 19.0613C14.9666 19.7199 15.6113 20.3839 16.5284 20.221C17.0589 20.0917 17.4155 19.7677 17.5859 19.2437C17.6299 19.1091 17.6545 18.9692 17.6457 18.8276C17.6316 18.608 17.47 18.4221 17.2715 18.3885C17.0062 18.3442 16.8112 18.4947 16.7444 18.6966C16.7269 18.7497 16.7216 18.8099 16.7181 18.8665C16.7128 18.9834 16.7163 19.0985 16.7128 19.2153C16.7111 19.2755 16.6812 19.3074 16.6215 19.3074C16.3738 19.3092 16.1278 19.3092 15.8801 19.3074C15.8204 19.3074 15.7852 19.2737 15.7852 19.2171C15.7835 19.0932 15.7782 18.9674 15.7835 18.8435C15.8028 18.2823 16.0575 17.8644 16.5477 17.5953C16.5986 17.567 16.6496 17.5422 16.704 17.5139C16.7075 17.4537 16.7146 17.397 16.7146 17.3386C16.7146 16.5914 16.7146 15.8443 16.7146 15.0989C16.7146 14.9661 16.704 14.8351 16.6794 14.7023C16.553 13.9994 16.1858 13.4629 15.585 13.0911C15.2266 12.868 14.8348 12.7565 14.4114 12.7565C13.6455 12.7565 12.8795 12.7565 12.1135 12.7565C12.0731 12.7565 12.031 12.7565 11.9906 12.76C11.532 12.7919 11.1069 13.1973 11.142 13.7427C11.1666 14.1215 11.3634 14.3942 11.7095 14.5518C11.8324 14.6084 11.9624 14.6226 12.096 14.6244C12.2927 14.6261 12.4912 14.6261 12.688 14.6261C12.7864 14.6261 12.8865 14.6314 12.9849 14.6244C13.0833 14.6173 13.1852 14.612 13.2765 14.5819C13.6051 14.4703 13.8159 14.2419 13.9002 13.9002C13.9178 13.8383 13.9142 13.7692 13.9599 13.7161ZM21.9586 11.8199C21.5229 11.8199 21.0872 11.8199 20.6498 11.8199C20.5918 11.8199 20.5356 11.8252 20.4776 11.834C20.4653 11.8358 20.4478 11.8535 20.4425 11.8659C20.4337 11.8889 20.4302 11.9137 20.4302 11.9385C20.4284 12.0624 20.4284 12.1864 20.4284 12.3121C20.4284 12.4608 20.4267 12.6113 20.4302 12.76C20.4425 13.2434 20.7833 13.6205 21.2383 13.6825C21.3121 13.6931 21.3859 13.6966 21.4597 13.6966C21.732 13.6984 22.0025 13.6948 22.2748 13.6984C22.389 13.7002 22.5067 13.6984 22.6192 13.7232C23.3078 13.8684 23.7839 14.2703 24.0386 14.9342C24.1159 15.1378 24.1441 15.3503 24.1458 15.5681C24.1476 15.7752 24.1441 15.9824 24.1476 16.1895C24.1493 16.2727 24.1546 16.3559 24.1722 16.4356C24.2337 16.7012 24.4005 16.8765 24.6606 16.942C24.9399 17.011 25.1823 16.9349 25.3668 16.7047C25.4072 16.6534 25.4388 16.5932 25.4687 16.5348C25.5442 16.3878 25.618 16.2391 25.69 16.0904C25.8341 15.7982 25.9307 15.4937 25.9764 15.1697C26.066 14.5075 25.9606 13.8807 25.6373 13.2965C25.1876 12.482 24.3057 11.8358 23.1655 11.8199C22.765 11.8146 22.3627 11.8199 21.9586 11.8199ZM6.4549 11.8199C6.19138 11.8199 5.92786 11.8199 5.66434 11.8199C5.51677 11.8199 5.3692 11.8323 5.22163 11.8553C4.65946 11.9403 4.16931 12.174 3.74592 12.5511C2.83766 13.3638 2.55482 14.612 2.95185 15.7557C3.05726 16.062 3.21361 16.3471 3.36821 16.6286C3.48767 16.8499 3.68795 16.9579 3.93566 16.965C4.27296 16.9756 4.55932 16.7401 4.61905 16.4055C4.63135 16.3329 4.63486 16.2568 4.63662 16.1824C4.63837 15.9912 4.63486 15.8 4.63837 15.6105C4.64189 15.4778 4.64189 15.3432 4.66824 15.214C4.8123 14.5412 5.20406 14.0702 5.84002 13.8117C6.04908 13.7267 6.26692 13.6948 6.49179 13.6948C6.77112 13.6966 7.05221 13.6948 7.33154 13.6948C7.42992 13.6948 7.5283 13.6842 7.62492 13.6665C7.95696 13.601 8.35224 13.2876 8.34872 12.7494C8.34697 12.2873 8.03953 11.9757 7.70574 11.8677C7.59506 11.8323 7.48262 11.8181 7.36492 11.8181C7.06451 11.8216 6.75882 11.8199 6.4549 11.8199ZM4.65419 17.7529C4.62959 17.9388 4.63837 18.1211 4.6454 18.3017C4.64716 18.3389 4.68756 18.3726 4.73324 18.3743C4.97919 18.3743 5.2269 18.3743 5.47285 18.3743C5.48164 18.3743 5.49042 18.3743 5.49745 18.3708C5.51853 18.3584 5.54488 18.3513 5.54839 18.323C5.55366 18.2823 5.56069 18.2415 5.56245 18.2008C5.56421 18.0185 5.56245 17.8361 5.5642 17.6537C5.5642 17.6042 5.56596 17.5546 5.57299 17.505C5.5765 17.482 5.59231 17.459 5.61867 17.4537C5.65029 17.4483 5.68367 17.443 5.71529 17.443C5.83827 17.4413 5.963 17.4483 6.08597 17.4395C6.54801 17.4076 6.92045 17.2058 7.18397 16.818C7.34208 16.5861 7.42289 16.3294 7.42289 16.0479C7.42465 15.6336 7.42289 15.2193 7.42289 14.805C7.42289 14.7713 7.41938 14.7395 7.41762 14.7058C7.41587 14.6775 7.38249 14.6456 7.35262 14.6421C7.34384 14.6403 7.33681 14.6368 7.32803 14.6368C7.03289 14.6368 6.73599 14.6368 6.44085 14.6368C6.41625 14.6368 6.39166 14.6421 6.36706 14.6456C5.98935 14.6846 5.64326 15.0121 5.58704 15.3999C5.57475 15.4902 5.56772 15.5804 5.56596 15.6725C5.56245 15.8708 5.56596 16.0709 5.5642 16.2692C5.56245 16.402 5.55542 16.533 5.52204 16.664C5.41839 17.0748 5.19001 17.3988 4.84216 17.636C4.78068 17.675 4.71743 17.7139 4.65419 17.7529ZM24.1423 17.76C24.0615 17.7068 23.9912 17.6643 23.9245 17.6165C23.603 17.3899 23.3869 17.0889 23.2797 16.7065C23.2358 16.5525 23.227 16.3967 23.2253 16.2391C23.2235 16.0479 23.227 15.8584 23.2235 15.6672C23.2217 15.5769 23.2165 15.4848 23.2024 15.3945C23.1409 14.9891 22.779 14.6757 22.4206 14.6438C22.3556 14.6385 22.2889 14.6314 22.2239 14.6314C21.999 14.6314 21.7777 14.6314 21.5563 14.6314C21.5159 14.6314 21.4755 14.6368 21.4333 14.6403C21.4035 14.6438 21.3718 14.6757 21.3701 14.7058C21.3683 14.7306 21.3648 14.7554 21.3648 14.7802C21.3648 15.2104 21.3595 15.6424 21.3666 16.0727C21.3754 16.6233 21.7267 17.1438 22.2713 17.3474C22.4189 17.4023 22.57 17.436 22.7281 17.4395C22.8265 17.4413 22.9248 17.4395 23.0232 17.4413C23.2182 17.443 23.2217 17.4466 23.2235 17.6307C23.2253 17.6962 23.2235 17.7635 23.2235 17.829C23.2253 17.9777 23.2235 18.1265 23.227 18.2769C23.2288 18.3318 23.2516 18.3743 23.3148 18.3743C23.5608 18.3761 23.8085 18.3761 24.0545 18.3743C24.1072 18.3743 24.1405 18.3354 24.1423 18.2752C24.1493 18.1105 24.1493 17.9459 24.1423 17.76ZM13.9301 16.8765C13.9301 16.487 13.9301 16.0974 13.9301 15.7062C13.9301 15.6406 13.9301 15.5734 13.9283 15.5079C13.9265 15.4742 13.9195 15.4423 13.9142 15.4105C13.909 15.3751 13.8721 15.3503 13.844 15.3609C13.8211 15.3698 13.7983 15.3786 13.7755 15.3892C13.5102 15.5149 13.2309 15.5734 12.9375 15.5645C12.7319 15.5592 12.5264 15.5627 12.3208 15.5645C12.2629 15.5645 12.2066 15.5681 12.1487 15.5698C12.11 15.5716 12.0766 15.6105 12.0731 15.653C12.0714 15.669 12.0714 15.6867 12.0714 15.7026C12.0714 16.1346 12.0714 16.5649 12.0714 16.9969C12.0714 17.1049 12.0889 17.2111 12.1153 17.3156C12.2629 17.9158 12.7688 18.2823 13.2291 18.3531C13.4013 18.3796 13.5734 18.3779 13.7456 18.3779C13.916 18.3779 13.9283 18.3655 13.9301 18.1937C13.9301 17.7546 13.9301 17.3156 13.9301 16.8765Z" fill="#696969"/>
<path d="M14.4022 0C16.6858 0 18.9694 0 21.253 0C21.344 0 21.4368 0.00367675 21.5278 0.0073535C21.5581 0.00919188 21.5902 0.0422826 21.592 0.0753734C21.5938 0.101111 21.5992 0.126848 21.5992 0.152585C21.6009 0.222444 21.5992 0.290463 21.5992 0.360322C21.5992 3.56645 21.5992 6.77442 21.5992 9.98054C21.5992 10.0743 21.5956 10.1699 21.592 10.2637C21.5902 10.2949 21.5581 10.328 21.5278 10.3317C21.5117 10.3335 21.4939 10.3372 21.4778 10.3372C21.2263 10.3372 20.9765 10.3372 20.725 10.3372C20.7 10.3372 20.675 10.3335 20.6518 10.3243C20.6375 10.3188 20.6197 10.3004 20.6197 10.2876C20.6126 10.1938 20.6072 10.0982 20.6072 10.0044C20.6072 8.09988 20.6072 6.19349 20.6072 4.28893C20.6072 3.32378 20.6072 2.35864 20.6072 1.39165C20.6072 1.31444 20.6072 1.23723 20.6054 1.15818C20.6036 1.0442 20.584 1.02581 20.4734 1.02214C20.4074 1.0203 20.3396 1.0203 20.2718 1.0203C16.3558 1.0203 12.4415 1.0203 8.52551 1.0203C8.14551 1.0203 8.18832 0.974339 8.18832 1.3604C8.18654 4.37717 8.18832 7.39395 8.18832 10.4126C8.18832 10.5082 8.18832 10.6019 8.18476 10.6975C8.18297 10.7582 8.14729 10.7986 8.09377 10.7986C7.82616 10.8005 7.55855 10.8005 7.29094 10.7986C7.23563 10.7986 7.20352 10.7619 7.20173 10.6993C7.19995 10.6313 7.19995 10.5615 7.19995 10.4916C7.19995 7.09429 7.19995 3.69881 7.19995 0.301494C7.19995 0.224282 7.20352 0.14707 7.20709 0.0698583C7.20887 0.0386059 7.24098 0.00551513 7.2731 0.00367675C7.35873 0.00367675 7.44258 0 7.52644 0C9.81896 0 12.1097 0 14.4022 0Z" fill="#696969"/>
<path d="M12.6305 3.59998C12.6499 3.61634 12.6726 3.62725 12.6872 3.64544C14.45 5.79491 16.2145 7.94439 17.9773 10.0939C17.987 10.1066 17.9919 10.123 17.9968 10.1393C18 10.1466 17.9984 10.1557 18 10.1721C17.9546 10.2212 17.906 10.2757 17.8558 10.3266C17.71 10.4776 17.5658 10.6267 17.4183 10.7758C17.3843 10.8104 17.3503 10.8067 17.3179 10.7722C17.3017 10.754 17.2855 10.7358 17.2693 10.7176C17.2433 10.6867 17.2174 10.6558 17.1915 10.6231C15.5048 8.56814 13.8181 6.51323 12.1315 4.45649C12.091 4.40557 12.0505 4.35466 12.0116 4.30374C11.9937 4.2801 11.997 4.23464 12.018 4.21099C12.0278 4.19826 12.0391 4.18554 12.0488 4.17462C12.2222 3.99641 12.3939 3.81638 12.5689 3.63816C12.5884 3.6218 12.6094 3.61271 12.6305 3.59998Z" fill="#696969"/>
<path d="M14.4 10.1513C14.388 10.1719 14.3795 10.1959 14.3658 10.2114C14.2252 10.3658 13.8703 10.709 13.7589 10.8C13.74 10.7897 13.716 10.7845 13.6989 10.7691C13.6509 10.7262 13.6063 10.6798 13.56 10.6352C12.696 9.7704 11.8338 8.90729 10.9698 8.04247C10.9235 7.99614 10.8789 7.95152 10.836 7.90348C10.8206 7.88632 10.8138 7.8623 10.8 7.83484C10.8326 7.79881 10.8618 7.76106 10.896 7.72845C11.0675 7.55858 11.2389 7.3887 11.4103 7.22054C11.4206 7.21025 11.4395 7.20681 11.4549 7.19995C11.4738 7.21368 11.496 7.22569 11.5132 7.24113C12.4629 8.19004 13.4109 9.14066 14.3589 10.0896C14.3743 10.1067 14.3846 10.129 14.4 10.1513Z" fill="#696969"/>
</svg>
