<svg width="27" height="23" viewBox="0 0 27 23" fill="none" xmlns="http://www.w3.org/2000/svg">
<path d="M10.4374 14.8576C10.3666 14.8062 10.3106 14.7647 10.2562 14.7232C9.95484 14.4858 9.74732 14.1854 9.64027 13.8136C9.39816 12.9671 9.82638 12.0591 10.6449 11.7222C10.7289 11.6873 10.8228 11.6724 10.8953 11.606C10.9101 11.5927 10.9381 11.5877 10.9612 11.5861C11.1917 11.5661 11.4223 11.5479 11.6529 11.5296C11.7155 11.5246 11.7748 11.5263 11.8324 11.5612C11.8802 11.591 11.9378 11.5794 11.9922 11.5794C12.3628 11.5794 12.7333 11.5811 13.1039 11.5794C13.2505 11.5794 13.3954 11.5861 13.542 11.6076C13.7182 11.6325 13.8961 11.6442 14.0723 11.6558C14.181 11.6624 14.2864 11.6857 14.3902 11.7188C15.4986 12.0658 16.2513 12.9837 16.4687 13.9713C16.5214 14.2153 16.5494 14.4626 16.5494 14.7116C16.5494 15.3739 16.5494 16.0345 16.5494 16.6968C16.5494 16.7731 16.5362 16.8528 16.5708 16.9292C16.6301 16.9607 16.6943 16.9906 16.7536 17.0271C17.228 17.3159 17.4454 17.7425 17.4124 18.2985C17.3976 18.5575 17.3334 18.8048 17.228 19.0422C17.2099 19.0836 17.1934 19.1268 17.1753 19.17C17.195 19.1998 17.2099 19.2281 17.2296 19.2513C17.4454 19.5069 17.6315 19.7841 17.7863 20.0812C17.7962 20.1011 17.811 20.1211 17.8242 20.1393C17.8357 20.1576 17.8719 20.1576 17.8835 20.1393C17.923 20.0729 17.9609 20.0049 17.9988 19.9385C18.4204 19.2065 18.9985 18.6388 19.7396 18.2388C20.0262 18.0828 20.3276 17.9632 20.6422 17.8803C20.7163 17.8603 20.7904 17.8404 20.8629 17.8155C20.8794 17.8105 20.8942 17.7807 20.8975 17.7607C20.8991 17.7408 20.8892 17.7143 20.8761 17.6993C20.8612 17.6827 20.8382 17.6728 20.8168 17.6661C20.7509 17.6446 20.6817 17.6296 20.6175 17.6047C19.8763 17.3225 19.4086 16.7914 19.2159 16.0179C19.1747 15.8519 19.1582 15.6809 19.1582 15.5083C19.1599 15.0801 19.1599 14.6518 19.1582 14.2236C19.1582 14.1456 19.155 14.0692 19.155 14.0012C19.1121 13.9281 19.0446 13.9016 18.9903 13.8584C18.7136 13.6443 18.511 13.3754 18.3924 13.0451C18.3249 12.8608 18.2936 12.6683 18.2903 12.4741C18.2853 12.1869 18.2886 11.8981 18.2886 11.611C18.2886 11.4931 18.3084 11.3786 18.3512 11.269C18.4583 10.9985 18.6543 10.8242 18.931 10.7428C18.9903 10.7263 19.0495 10.7146 19.099 10.6715C19.1204 10.6532 19.1566 10.6482 19.1846 10.6466C19.486 10.6383 19.7874 10.63 20.0872 10.625C20.1168 10.625 20.1563 10.6283 20.1744 10.6466C20.2387 10.708 20.3161 10.7014 20.3918 10.7014C20.825 10.7014 21.2565 10.698 21.6897 10.703C22.1014 10.7063 22.5033 10.7744 22.8936 10.9138C24.0169 11.3105 24.9441 12.323 25.1879 13.5779C25.2604 13.9547 25.2801 14.3315 25.2389 14.7149C25.1895 15.1697 25.066 15.5979 24.8601 16.0046C24.7794 16.164 24.7037 16.3266 24.6213 16.4843C24.4599 16.7897 24.2228 17.0155 23.9082 17.1566C23.8374 17.1881 23.7632 17.2097 23.6908 17.2346C23.6397 17.2528 23.5887 17.2678 23.531 17.286C23.5261 17.3176 23.5162 17.3474 23.5162 17.3773C23.5162 17.5018 23.5162 17.6263 23.5195 17.7508C23.5195 17.789 23.5491 17.8222 23.5903 17.8321C23.755 17.872 23.9181 17.9184 24.0795 17.9749C25.5469 18.4894 26.601 19.7526 26.9024 21.185C26.9584 21.4523 26.9946 21.7212 26.9979 21.995C27.0012 22.2822 26.9996 22.571 26.9996 22.8582C26.9996 22.8814 26.9963 22.9046 26.9946 22.9279C26.993 22.9511 26.9568 22.9893 26.9354 22.9926C26.9041 22.9959 26.8744 22.9993 26.8431 22.9993C26.7657 23.0009 26.6883 22.9993 26.6109 22.9993C17.8687 22.9993 9.12641 22.9993 0.384161 22.9993C0.283695 22.9993 0.183228 22.9976 0.0827615 22.9943C0.0399396 22.9926 0.00699973 22.9627 0.00370574 22.9246C0.00205874 22.9096 0.000411749 22.893 0.000411749 22.8781C0.00205874 22.5511 -0.00452923 22.2241 0.00699973 21.8971C0.0333516 21.1585 0.244167 20.4713 0.629564 19.8439C1.2406 18.8479 2.11021 18.1906 3.23346 17.8753C3.50686 17.7989 3.4838 17.872 3.4838 17.5599C3.4838 17.4752 3.48051 17.3889 3.48051 17.3159C3.43439 17.2595 3.38004 17.2528 3.32899 17.2395C3.20052 17.208 3.08029 17.1566 2.965 17.0918C2.71631 16.9507 2.52031 16.7549 2.38855 16.5009C2.26668 16.2669 2.14809 16.0312 2.04104 15.7888C1.81375 15.2759 1.71329 14.7348 1.74293 14.1738C1.79234 13.2343 2.1415 12.4243 2.79865 11.752C2.87442 11.6757 2.96171 11.6093 3.01771 11.513C3.03582 11.4815 3.07206 11.4599 3.105 11.4383C3.50192 11.1943 3.91696 10.9902 4.35671 10.8375C4.52635 10.7794 4.70258 10.7594 4.87881 10.7428C5.00233 10.7312 5.12421 10.7196 5.24774 10.7097C5.30867 10.7047 5.37126 10.7014 5.4322 10.7014C5.93453 10.7014 6.43687 10.7014 6.93755 10.7014C7.12366 10.7014 7.30813 10.7263 7.48435 10.786C8.11186 11.0001 8.50384 11.435 8.66854 12.0807C8.79701 12.7861 8.59278 13.3704 8.04433 13.8302C7.98504 13.88 7.92081 13.9231 7.86481 13.9646C7.82858 14.0294 7.8401 14.0941 7.8401 14.1539C7.83846 14.6053 7.83846 15.0568 7.8401 15.5083C7.8401 15.7523 7.80716 15.9897 7.72646 16.2187C7.48765 16.9092 7.0232 17.3773 6.33805 17.618C6.28699 17.6363 6.23429 17.6479 6.18323 17.6645C6.16182 17.6711 6.13711 17.6811 6.12394 17.6977C6.11076 17.7126 6.09923 17.7392 6.10253 17.7591C6.10417 17.779 6.119 17.8039 6.13711 17.8155C6.16182 17.8305 6.19476 17.8354 6.2244 17.8437C6.47145 17.9068 6.71521 17.9832 6.94908 18.0877C7.83187 18.4811 8.51537 19.1002 9.00124 19.9401C9.04076 20.0065 9.07864 20.0746 9.11652 20.141C9.12805 20.1609 9.16429 20.1592 9.17582 20.1393C9.20382 20.0928 9.23017 20.0464 9.25817 19.9982C9.68968 19.2231 10.2958 18.6305 11.0748 18.2172C11.116 18.1956 11.1572 18.1757 11.1983 18.1525C11.228 18.1375 11.2362 18.0944 11.2164 18.0745C11.1736 18.0296 11.1275 17.9881 11.0847 17.9433C10.6713 17.5167 10.4572 17.0055 10.4506 16.4113C10.4457 15.9747 10.4489 15.5398 10.4489 15.1033C10.4407 15.0253 10.4391 14.9473 10.4374 14.8576ZM22.1904 22.1195C23.3943 22.1195 24.5983 22.1195 25.8006 22.1195C25.878 22.1195 25.9554 22.1195 26.0328 22.1179C26.0476 22.1179 26.0641 22.1162 26.0773 22.1079C26.0904 22.1013 26.1036 22.088 26.1086 22.0747C26.1168 22.0531 26.1217 22.0299 26.1217 22.0067C26.1053 21.4855 25.9817 20.9925 25.7479 20.5277C25.211 19.4621 24.0828 18.6156 22.6598 18.6056C22.3584 18.604 22.0586 18.604 21.7572 18.6056C21.5019 18.6073 21.2483 18.6322 20.9996 18.6903C19.4761 19.0471 18.3463 20.3783 18.2886 22.0017C18.2886 22.0166 18.2903 22.0332 18.2919 22.0482C18.2936 22.0714 18.3282 22.1112 18.3512 22.1112C18.4286 22.1146 18.506 22.1179 18.5818 22.1179C19.7841 22.1212 20.9881 22.1195 22.1904 22.1195ZM4.76846 22.1195C5.97241 22.1195 7.17637 22.1195 8.37867 22.1195C8.45608 22.1195 8.53349 22.1195 8.6109 22.1179C8.62572 22.1179 8.64219 22.1146 8.65537 22.1079C8.66854 22.1013 8.68007 22.088 8.68666 22.0747C8.69489 22.0531 8.70148 22.0299 8.69984 22.0067C8.68172 21.4855 8.55819 20.9925 8.32432 20.5277C7.78575 19.4571 6.65427 18.6156 5.23621 18.6056C4.93481 18.604 4.63505 18.604 4.33365 18.6056C4.07837 18.6073 3.82473 18.6322 3.57604 18.6903C2.03774 19.0505 0.919434 20.3966 0.865084 22.0017C0.865084 22.0166 0.866731 22.0332 0.868378 22.0482C0.870025 22.0714 0.904612 22.1112 0.92767 22.1112C1.00508 22.1146 1.08249 22.1179 1.15825 22.1179C2.36055 22.1212 3.56451 22.1195 4.76846 22.1195ZM16.5939 19.8804C16.5115 19.9352 16.4489 19.9816 16.3847 20.0215C15.8363 20.3617 15.2532 20.4497 14.6307 20.2738C13.9373 20.0779 13.374 19.5152 13.1648 18.8397C13.1467 18.7799 13.1302 18.7201 13.1088 18.662C13.1023 18.6438 13.0775 18.6272 13.0578 18.6205C13.0298 18.6122 12.9968 18.6089 12.9672 18.6106C12.6658 18.6189 12.3693 18.6637 12.0778 18.7484C10.9365 19.082 9.86261 20.0746 9.61721 21.5718C9.59251 21.7245 9.58921 21.8805 9.57933 22.0365C9.57604 22.0747 9.61227 22.1146 9.6485 22.1162C9.72591 22.1179 9.80332 22.1212 9.87908 22.1212C12.2936 22.1212 14.7081 22.1212 17.1226 22.1212C17.1769 22.1212 17.2313 22.1212 17.284 22.1212C17.307 22.1212 17.3301 22.1179 17.3531 22.1162C17.3746 22.1146 17.4075 22.0747 17.4091 22.0498C17.4091 22.0349 17.4124 22.0183 17.4108 22.0033C17.3976 21.8091 17.3844 21.6166 17.3449 21.4241C17.2346 20.8813 17.0106 20.3916 16.6713 19.9567C16.6515 19.9318 16.6285 19.9136 16.5939 19.8804ZM13.0874 13.3588C13.1023 13.3538 13.1171 13.3455 13.1319 13.3455C13.3707 13.3455 13.6095 13.3455 13.85 13.3455C13.8928 13.3455 13.9208 13.3787 13.9208 13.4185C13.9241 13.6094 13.8747 13.7887 13.8088 13.963C13.7874 14.0211 13.7578 14.0759 13.7347 14.1339C13.7232 14.1638 13.7248 14.1954 13.7363 14.2252C13.7512 14.2601 13.7676 14.2966 13.7841 14.3315C13.873 14.5323 13.9208 14.7431 13.9257 14.9639C13.9274 15.0419 13.9274 15.1199 13.9274 15.1979C13.9274 16.1391 13.9274 17.0802 13.9274 18.0213C13.9274 18.1375 13.9323 18.2537 13.9488 18.3699C14.0312 18.9874 14.6356 19.6098 15.4953 19.4571C15.9927 19.3359 16.3271 19.0322 16.4868 18.5409C16.528 18.4147 16.5511 18.2836 16.5428 18.1508C16.5296 17.945 16.3781 17.7707 16.192 17.7392C15.9433 17.6977 15.7605 17.8388 15.6979 18.028C15.6814 18.0778 15.6765 18.1342 15.6732 18.1873C15.6683 18.2969 15.6716 18.4048 15.6683 18.5143C15.6666 18.5708 15.6386 18.6006 15.5826 18.6006C15.3504 18.6023 15.1198 18.6023 14.8876 18.6006C14.8316 18.6006 14.7987 18.5691 14.7987 18.516C14.797 18.3998 14.7921 18.2819 14.797 18.1657C14.8151 17.6396 15.0539 17.2478 15.5135 16.9955C15.5612 16.969 15.609 16.9457 15.66 16.9192C15.6633 16.8628 15.6699 16.8096 15.6699 16.7549C15.6699 16.0544 15.6699 15.3539 15.6699 14.6551C15.6699 14.5307 15.66 14.4078 15.637 14.2833C15.5184 13.6244 15.1742 13.1214 14.6109 12.7729C14.2749 12.5637 13.9076 12.4591 13.5107 12.4591C12.7926 12.4591 12.0745 12.4591 11.3564 12.4591C11.3186 12.4591 11.279 12.4591 11.2411 12.4625C10.8113 12.4923 10.4127 12.8725 10.4456 13.3837C10.4687 13.7389 10.6532 13.9945 10.9776 14.1422C11.0929 14.1954 11.2148 14.2086 11.34 14.2103C11.5244 14.212 11.7105 14.212 11.895 14.212C11.9872 14.212 12.0811 14.2169 12.1733 14.2103C12.2656 14.2037 12.3611 14.1987 12.4467 14.1705C12.7547 14.0659 12.9524 13.8518 13.0314 13.5314C13.0479 13.4733 13.0446 13.4086 13.0874 13.3588ZM20.5862 11.5811C20.1777 11.5811 19.7693 11.5811 19.3592 11.5811C19.3048 11.5811 19.2521 11.5861 19.1978 11.5944C19.1862 11.596 19.1698 11.6126 19.1648 11.6242C19.1566 11.6458 19.1533 11.6691 19.1533 11.6923C19.1517 11.8085 19.1517 11.9247 19.1517 12.0425C19.1517 12.1819 19.15 12.323 19.1533 12.4625C19.1648 12.9156 19.4844 13.2692 19.9109 13.3273C19.9801 13.3372 20.0493 13.3405 20.1184 13.3405C20.3737 13.3422 20.6274 13.3389 20.8827 13.3422C20.9897 13.3439 21.1001 13.3422 21.2055 13.3654C21.8511 13.5015 22.2974 13.8783 22.5362 14.5008C22.6087 14.6917 22.6351 14.8908 22.6367 15.095C22.6383 15.2892 22.6351 15.4834 22.6383 15.6776C22.64 15.7556 22.6449 15.8336 22.6614 15.9083C22.719 16.1573 22.8755 16.3216 23.1193 16.3831C23.3811 16.4478 23.6084 16.3764 23.7814 16.1606C23.8192 16.1125 23.8489 16.0561 23.8769 16.0013C23.9477 15.8635 24.0169 15.7241 24.0844 15.5847C24.2195 15.3108 24.31 15.0253 24.3529 14.7215C24.4369 14.1007 24.338 13.5132 24.035 12.9654C23.6134 12.2019 22.7866 11.596 21.7177 11.5811C21.3422 11.5761 20.965 11.5811 20.5862 11.5811ZM6.05147 11.5811C5.80442 11.5811 5.55737 11.5811 5.31032 11.5811C5.17197 11.5811 5.03363 11.5927 4.89528 11.6143C4.36824 11.694 3.90873 11.9131 3.5118 12.2666C2.66031 13.0285 2.39514 14.1987 2.76736 15.2709C2.86618 15.5581 3.01276 15.8253 3.1577 16.0893C3.2697 16.2967 3.45745 16.398 3.68968 16.4046C4.0059 16.4146 4.27436 16.1938 4.33036 15.8801C4.34189 15.8121 4.34518 15.7407 4.34683 15.671C4.34848 15.4917 4.34518 15.3124 4.34848 15.1348C4.35177 15.0104 4.35177 14.8842 4.37648 14.763C4.51153 14.1323 4.87881 13.6908 5.47502 13.4484C5.67101 13.3688 5.87524 13.3389 6.08606 13.3389C6.34793 13.3405 6.61145 13.3389 6.87332 13.3389C6.96555 13.3389 7.05778 13.3289 7.14837 13.3123C7.45965 13.2509 7.83022 12.9571 7.82693 12.4525C7.82528 12.0193 7.53706 11.7271 7.22413 11.6259C7.12037 11.5927 7.01496 11.5794 6.90461 11.5794C6.62298 11.5827 6.3364 11.5811 6.05147 11.5811ZM4.3633 17.1433C4.34024 17.3176 4.34848 17.4885 4.35506 17.6578C4.35671 17.6927 4.39459 17.7242 4.43741 17.7259C4.66799 17.7259 4.90022 17.7259 5.1308 17.7259C5.13903 17.7259 5.14727 17.7259 5.15386 17.7226C5.17362 17.7109 5.19833 17.7043 5.20162 17.6777C5.20656 17.6396 5.21315 17.6014 5.2148 17.5632C5.21644 17.3923 5.2148 17.2213 5.21644 17.0503C5.21644 17.0038 5.21809 16.9574 5.22468 16.9109C5.22797 16.8893 5.24279 16.8677 5.2675 16.8628C5.29714 16.8578 5.32844 16.8528 5.35808 16.8528C5.47337 16.8511 5.59031 16.8578 5.7056 16.8495C6.13876 16.8196 6.48792 16.6304 6.73497 16.2669C6.8832 16.0494 6.95896 15.8087 6.95896 15.5448C6.96061 15.1564 6.95896 14.768 6.95896 14.3796C6.95896 14.3481 6.95567 14.3182 6.95402 14.2867C6.95237 14.2601 6.92108 14.2302 6.89308 14.2269C6.88485 14.2252 6.87826 14.2219 6.87002 14.2219C6.59333 14.2219 6.31499 14.2219 6.03829 14.2219C6.01523 14.2219 5.99218 14.2269 5.96912 14.2302C5.61502 14.2667 5.29056 14.5738 5.23785 14.9373C5.22632 15.022 5.21974 15.1066 5.21809 15.1929C5.2148 15.3788 5.21809 15.5664 5.21644 15.7523C5.2148 15.8768 5.20821 15.9996 5.17691 16.1225C5.07974 16.5075 4.86563 16.8113 4.53953 17.0337C4.48188 17.0702 4.42259 17.1068 4.3633 17.1433ZM22.6334 17.1499C22.5576 17.1001 22.4918 17.0603 22.4292 17.0155C22.1278 16.803 21.9252 16.5208 21.8247 16.1623C21.7836 16.0179 21.7753 15.8718 21.7737 15.7241C21.772 15.5448 21.7753 15.3672 21.772 15.188C21.7704 15.1033 21.7654 15.017 21.7523 14.9323C21.6946 14.5522 21.3553 14.2584 21.0194 14.2286C20.9584 14.2236 20.8958 14.2169 20.8349 14.2169C20.6241 14.2169 20.4166 14.2169 20.209 14.2169C20.1711 14.2169 20.1333 14.2219 20.0937 14.2252C20.0657 14.2286 20.0361 14.2584 20.0344 14.2867C20.0328 14.3099 20.0295 14.3331 20.0295 14.3564C20.0295 14.7597 20.0246 15.1647 20.0312 15.5681C20.0394 16.0843 20.3688 16.5723 20.8794 16.7632C21.0177 16.8146 21.1593 16.8462 21.3076 16.8495C21.3998 16.8511 21.492 16.8495 21.5843 16.8511C21.7671 16.8528 21.7704 16.8561 21.772 17.0287C21.7737 17.0902 21.772 17.1532 21.772 17.2146C21.7737 17.3541 21.772 17.4935 21.7753 17.6346C21.777 17.686 21.7984 17.7259 21.8577 17.7259C22.0882 17.7275 22.3205 17.7275 22.5511 17.7259C22.6005 17.7259 22.6318 17.6894 22.6334 17.6329C22.64 17.4786 22.64 17.3242 22.6334 17.1499ZM13.0594 16.3216C13.0594 15.9565 13.0594 15.5913 13.0594 15.2245C13.0594 15.1631 13.0594 15.1 13.0578 15.0386C13.0561 15.007 13.0495 14.9772 13.0446 14.9473C13.0397 14.9141 13.0051 14.8908 12.9787 14.9008C12.9573 14.9091 12.9359 14.9174 12.9145 14.9274C12.6658 15.0452 12.4039 15.1 12.1289 15.0917C11.9362 15.0867 11.7435 15.09 11.5508 15.0917C11.4964 15.0917 11.4437 15.095 11.3894 15.0967C11.3531 15.0983 11.3218 15.1348 11.3186 15.1747C11.3169 15.1896 11.3169 15.2062 11.3169 15.2212C11.3169 15.6262 11.3169 16.0295 11.3169 16.4345C11.3169 16.5358 11.3334 16.6354 11.3581 16.7333C11.4964 17.296 11.9708 17.6396 12.4023 17.706C12.5637 17.7309 12.7251 17.7292 12.8865 17.7292C13.0463 17.7292 13.0578 17.7176 13.0594 17.5566C13.0594 17.1449 13.0594 16.7333 13.0594 16.3216Z" fill="#696969"/>
<path d="M13.5021 0.5C15.643 0.5 17.7839 0.5 19.9248 0.5C20.0101 0.5 20.0971 0.503447 20.1824 0.506894C20.2108 0.508617 20.2409 0.53964 20.2426 0.570663C20.2442 0.594791 20.2493 0.61892 20.2493 0.643049C20.2509 0.708541 20.2493 0.772309 20.2493 0.837802C20.2493 3.84355 20.2493 6.85101 20.2493 9.85676C20.2493 9.94466 20.2459 10.0343 20.2426 10.1222C20.2409 10.1515 20.2108 10.1825 20.1824 10.1859C20.1673 10.1877 20.1506 10.1911 20.1355 10.1911C19.8997 10.1911 19.6655 10.1911 19.4297 10.1911C19.4063 10.1911 19.3829 10.1877 19.3611 10.1791C19.3477 10.1739 19.331 10.1566 19.331 10.1446C19.3243 10.0567 19.3193 9.96706 19.3193 9.87916C19.3193 8.09364 19.3193 6.3064 19.3193 4.52087C19.3193 3.61605 19.3193 2.71122 19.3193 1.80467C19.3193 1.73229 19.3193 1.6599 19.3176 1.58579C19.316 1.47894 19.2976 1.4617 19.1939 1.45825C19.132 1.45653 19.0684 1.45653 19.0049 1.45653C15.3336 1.45653 11.664 1.45653 7.99271 1.45653C7.63646 1.45653 7.6766 1.41344 7.6766 1.77537C7.67493 4.6036 7.6766 7.43183 7.6766 10.2618C7.6766 10.3514 7.6766 10.4393 7.67325 10.5289C7.67158 10.5858 7.63813 10.6237 7.58795 10.6237C7.33707 10.6254 7.08618 10.6254 6.8353 10.6237C6.78345 10.6237 6.75334 10.5892 6.75167 10.5306C6.75 10.4669 6.75 10.4014 6.75 10.3359C6.75 7.1509 6.75 3.96764 6.75 0.78265C6.75 0.710264 6.75334 0.637878 6.75669 0.565492C6.75836 0.536193 6.78847 0.50517 6.81858 0.503447C6.89886 0.503447 6.97747 0.5 7.05608 0.5C9.20532 0.5 11.3529 0.5 13.5021 0.5Z" fill="#696969"/>
<path d="M11.8411 3.875C11.8593 3.89034 11.8806 3.90057 11.8943 3.91762C13.5469 5.93276 15.2011 7.94789 16.8537 9.96302C16.8628 9.97496 16.8674 9.9903 16.872 10.0056C16.875 10.0125 16.8735 10.021 16.875 10.0363C16.8325 10.0824 16.7869 10.1335 16.7398 10.1812C16.6031 10.3227 16.4679 10.4625 16.3297 10.6023C16.2978 10.6347 16.2659 10.6313 16.2355 10.5989C16.2203 10.5819 16.2051 10.5648 16.1899 10.5478C16.1656 10.5188 16.1413 10.4898 16.117 10.4591C14.5358 8.53265 12.9545 6.60617 11.3732 4.67799C11.3353 4.63025 11.2973 4.58251 11.2608 4.53478C11.2441 4.51261 11.2472 4.46999 11.2669 4.44783C11.276 4.4359 11.2867 4.42396 11.2958 4.41373C11.4583 4.24666 11.6193 4.07788 11.7834 3.9108C11.8016 3.89546 11.8213 3.88693 11.8411 3.875Z" fill="#696969"/>
<path d="M13.5 10.0169C13.4887 10.0362 13.4807 10.0587 13.4679 10.0732C13.3361 10.218 13.0034 10.5397 12.8989 10.625C12.8812 10.6153 12.8587 10.6105 12.8427 10.596C12.7977 10.5558 12.7559 10.5124 12.7125 10.4706C11.9025 9.6598 11.0941 8.85063 10.2841 8.03986C10.2407 7.99643 10.1989 7.9546 10.1587 7.90956C10.1443 7.89347 10.1379 7.87095 10.125 7.84521C10.1555 7.81143 10.1829 7.77604 10.215 7.74547C10.3757 7.58621 10.5364 7.42695 10.6971 7.2693C10.7068 7.25965 10.7245 7.25643 10.7389 7.25C10.7566 7.26287 10.7775 7.27413 10.7936 7.28861C11.6839 8.17821 12.5727 9.06941 13.4614 9.95901C13.4759 9.9751 13.4855 9.99601 13.5 10.0169Z" fill="#696969"/>
</svg>
