<svg width="23" height="23" viewBox="0 0 23 23" fill="none" xmlns="http://www.w3.org/2000/svg">
<path d="M2 3H15V0.5H16L17 1.5V5.5H20L22 6L22.5 7L22 10.5L21 14V16L20.5 17L19.5 18H10L5 22.5V17.5H2L0.5 16V5L2 3Z" fill="white"/>
<path d="M21.5354 16.3334C21.0743 17.5556 19.908 18.3612 18.6333 18.3612H10.0896L5.53302 22.8333C5.42453 22.9444 5.28891 23 5.12618 23C5.04481 23 4.96344 22.9722 4.9092 22.9444C4.69222 22.8611 4.5566 22.6389 4.5566 22.3889V18.3612H3.1191C1.38325 18.3612 0 16.9168 0 15.1668V5.4725C0 3.69475 1.41038 2.27811 3.1191 2.27811H12.6392C12.9646 2.27811 13.2087 2.55588 13.2087 2.86143C13.2087 3.16698 12.9375 3.44475 12.6392 3.44475H3.14623C2.06132 3.44475 1.16627 4.36141 1.16627 5.4725V15.1668C1.16627 16.2779 2.06132 17.1945 3.14623 17.1945H5.1533C5.47877 17.1945 5.72288 17.4723 5.72288 17.7779V21.0278L9.4658 17.3612C9.57429 17.2501 9.70991 17.1945 9.87264 17.1945H18.6604C19.4741 17.1945 20.2064 16.6668 20.5047 15.9168C20.6132 15.6112 20.9658 15.4723 21.2642 15.5834C21.5083 15.6946 21.671 16.0279 21.5354 16.3334ZM23 7.08358C23 7.11136 23 7.13914 23 7.16692L22.1592 12.5835C21.9965 13.9724 21.02 14.7779 19.5554 14.7779H13.3443C12.7476 14.7779 12.2323 14.5557 11.8255 14.1668C11.6356 14.3057 11.4186 14.389 11.1745 14.389H9.08608C8.48939 14.389 8.00118 13.889 8.00118 13.2779V6.58359C8.00118 5.97249 8.48939 5.4725 9.08608 5.4725H11.1745C11.5 5.4725 11.7712 5.61139 11.9611 5.8336C12.1781 5.77805 14.2123 5.11139 14.2123 3.27809V0.694798C14.2123 0.444802 14.375 0.222583 14.6191 0.139251C14.7547 0.0836965 15.9752 -0.277409 16.9245 0.444802C17.5212 0.889239 17.8467 1.667 17.8467 2.72254V4.80584H20.7488C21.9965 4.80584 23 5.8336 23 7.08358ZM11.1203 6.66692H9.19458V13.2224H11.1203V6.66692ZM21.8337 7.05581C21.8066 6.47248 21.3455 6.00027 20.7488 6.00027H17.2771C16.9517 6.00027 16.7075 5.7225 16.7075 5.41694V2.75032C16.7075 2.11144 16.5719 1.667 16.2736 1.44479C16.0295 1.25034 15.6769 1.22257 15.4057 1.25034V3.36142C15.4057 6.13916 12.4493 7.00025 12.3137 7.05581V12.5835C12.3137 13.1946 12.8019 13.6946 13.3986 13.6946H19.5825C20.9116 13.6946 21.02 12.8057 21.0472 12.5279C21.0472 12.5279 21.0472 12.5279 21.0472 12.5002L21.8337 7.05581Z" fill="#696969"/>
</svg>
