<svg width="24" height="24" viewBox="0 0 24 24" fill="none" xmlns="http://www.w3.org/2000/svg">
<path d="M22.9248 23.9997H0.611374C0.274245 23.9997 0 23.7255 0 23.3883V21.3044C0 20.9673 0.274245 20.6931 0.611374 20.6931H22.9248C23.2619 20.6931 23.5362 20.9673 23.5362 21.3044V23.3883C23.5362 23.7255 23.2619 23.9997 22.9248 23.9997ZM1.22275 22.777H22.3134V21.9158H1.22275V22.777Z" fill="#696969"/>
<path d="M16.8267 21.9214H6.86308C6.52595 21.9214 6.25171 21.6472 6.25171 21.31V13.8844C6.25171 13.5473 6.52595 13.2731 6.86308 13.2731H16.8267C17.1639 13.2731 17.4381 13.5473 17.4381 13.8844V21.31C17.4381 21.6489 17.1639 21.9214 16.8267 21.9214ZM7.47446 20.6986H16.2154V14.4958H7.47446V20.6986Z" fill="#696969"/>
<path d="M19.2848 21.9161C19.042 21.9161 18.8131 21.7711 18.7171 21.5318C18.593 21.2209 18.7415 20.868 19.0507 20.7405C19.1747 20.6864 20.2071 20.1781 19.7756 18.4522L18.3607 13.2119C17.7057 10.8205 14.3082 9.66591 11.2897 9.76199C8.83201 9.84059 5.78911 10.7821 5.29477 13.1752C4.8214 15.6207 3.9218 18.3876 3.79079 18.7859C3.75411 19.0252 3.58467 20.4086 4.62226 20.7196C4.94542 20.8174 5.12883 21.158 5.03276 21.4812C4.93494 21.8043 4.59606 21.9877 4.27116 21.8917C2.53311 21.3711 2.41607 19.4601 2.59599 18.5221C2.60123 18.4959 2.60822 18.4697 2.61695 18.4435C2.62743 18.4138 3.61087 15.4495 4.09648 12.9359C4.62226 10.3856 7.43109 8.66151 11.2513 8.53924C14.6436 8.43268 18.6786 9.74627 19.5415 12.8905L20.9599 18.1448C21.5276 20.4121 20.2612 21.5737 19.5136 21.8724C19.4367 21.9021 19.3599 21.9161 19.2848 21.9161Z" fill="#696969"/>
<path fill-rule="evenodd" clip-rule="evenodd" d="M11.9199 1.22275C10.3841 1.22275 9.13901 2.46779 9.13901 4.00363C9.13901 5.53947 10.3841 6.78451 11.9199 6.78451C13.4557 6.78451 14.7008 5.53947 14.7008 4.00363C14.7008 2.46779 13.4557 1.22275 11.9199 1.22275ZM7.91626 4.00363C7.91626 1.79249 9.70874 0 11.9199 0C14.131 0 15.9235 1.79249 15.9235 4.00363C15.9235 6.21477 14.131 8.00726 11.9199 8.00726C9.70874 8.00726 7.91626 6.21477 7.91626 4.00363Z" fill="#696969"/>
</svg>
