<svg width="26" height="18" viewBox="0 0 26 18" fill="none" xmlns="http://www.w3.org/2000/svg">
<path d="M0 12.2076C0 11.7523 0.0429468 11.3057 0.0773043 10.859C0.111662 10.4296 0.171787 10.0087 0.231913 9.57923C0.309217 9.08105 0.395111 8.58286 0.506772 8.09327C0.644202 7.44907 0.798811 6.80486 0.987777 6.17784C1.24546 5.29314 1.56326 4.4342 1.96696 3.60962C2.29336 2.93106 2.69706 2.30404 3.17806 1.72855C3.43575 1.41075 3.72778 1.1273 4.04559 0.878205C4.518 0.508862 5.04196 0.251182 5.61744 0.122341C5.88371 0.0622157 6.15857 0.0192689 6.43343 0.0106795C6.83713 -0.00649923 7.24083 0.0278582 7.64453 0.0793944C8.22002 0.165288 8.77833 0.294128 9.33664 0.431558C9.93789 0.577577 10.5391 0.732186 11.149 0.869616C11.587 0.964099 12.0337 1.04999 12.4803 1.11012C12.6607 1.13589 12.8497 1.16165 13.0301 1.15306C13.1761 1.14448 13.3221 1.13589 13.4767 1.11871C13.8546 1.06717 14.224 1.00705 14.5933 0.929741C15.332 0.775133 16.0621 0.586167 16.7922 0.397201C17.2045 0.294128 17.6082 0.199645 18.0291 0.122341C18.5616 0.0278582 19.1027 -0.0236779 19.6439 0.0106795C20.3997 0.0536263 21.0955 0.285539 21.7225 0.706418C22.0489 0.929741 22.3409 1.18742 22.6072 1.47946C22.8219 1.71137 23.0109 1.95188 23.1999 2.20097C23.6465 2.8194 24.0159 3.48937 24.3079 4.1937C24.6171 4.94097 24.8748 5.70543 25.0981 6.47847C25.3214 7.26869 25.5018 8.0675 25.6478 8.88349C25.7251 9.33014 25.7939 9.77678 25.854 10.2234C25.9055 10.6271 25.9399 11.0308 25.9656 11.4431C26 11.9499 26.0086 12.4653 25.9914 12.972C25.9742 13.5132 25.9313 14.0543 25.8196 14.5782C25.7423 14.9476 25.6307 15.3083 25.4675 15.6519C25.3558 15.8838 25.2184 16.1071 25.0466 16.3047C24.7374 16.6569 24.3508 16.906 23.8956 17.009C23.6465 17.0692 23.3974 17.0863 23.1483 17.0606C22.6673 17.0176 22.2035 16.8888 21.7569 16.6998C21.4648 16.571 21.1814 16.425 20.9065 16.2618C20.3224 15.9182 19.7813 15.5231 19.2488 15.1108C18.7506 14.7157 18.2696 14.3034 17.8057 13.8653C17.445 13.5217 17.0241 13.2555 16.5689 13.0493C16.1394 12.8518 15.6842 12.7143 15.2203 12.6113C14.8081 12.5168 14.3958 12.4567 13.9749 12.4137C13.4509 12.3622 12.927 12.3622 12.403 12.388C11.587 12.4309 10.7882 12.5683 10.0066 12.826C9.71457 12.9205 9.43971 13.0407 9.16485 13.1782C8.82128 13.3585 8.50347 13.5733 8.22002 13.8396C7.62735 14.3893 7.01751 14.9132 6.37331 15.4028C5.93525 15.7292 5.48001 16.0384 5.0076 16.3133C4.68979 16.5023 4.35481 16.6655 4.01123 16.8029C3.67625 16.9403 3.32408 17.0348 2.96333 17.0692C2.61976 17.1035 2.28477 17.0777 1.94979 16.9747C1.54609 16.8458 1.20251 16.6139 0.927651 16.2875C0.704328 16.0212 0.523951 15.7206 0.4037 15.3942C0.27486 15.0678 0.197555 14.7328 0.13743 14.3893C0.0515362 13.8481 0 13.3156 0 12.7831C0 12.5941 0 12.3965 0 12.2076ZM1.20251 12.0444C1.19392 12.7315 1.19392 13.2211 1.24546 13.7107C1.27982 14.0371 1.33135 14.3549 1.42583 14.6727C1.48596 14.8617 1.55467 15.0507 1.65775 15.2224C1.73505 15.3513 1.82094 15.4715 1.93261 15.566C2.11298 15.7206 2.31913 15.8151 2.55104 15.8323C2.71424 15.8409 2.87744 15.8323 3.04063 15.7979C3.31549 15.7378 3.58176 15.6433 3.83944 15.5317C4.13148 15.4028 4.40634 15.2482 4.6812 15.085C5.03337 14.8703 5.36835 14.6298 5.70334 14.3721C6.27882 13.934 6.82854 13.453 7.36108 12.9634C7.6703 12.6714 8.01388 12.4309 8.38322 12.2248C8.76115 12.01 9.16485 11.8382 9.57714 11.6922C10.479 11.383 11.4067 11.2198 12.3601 11.1683C12.9699 11.1339 13.5884 11.1425 14.1982 11.2112C14.6363 11.2627 15.0657 11.3315 15.4866 11.4345C16.0449 11.572 16.5946 11.7523 17.1186 12.0014C17.6597 12.2677 18.1579 12.5941 18.5874 13.015C19.0856 13.496 19.6181 13.9512 20.1678 14.3807C20.6316 14.7414 21.1127 15.0678 21.628 15.3513C21.8427 15.4715 22.0575 15.5746 22.2894 15.6691C22.59 15.7893 22.8907 15.8752 23.217 15.8838C23.3545 15.8924 23.5005 15.8838 23.6379 15.8495C23.8527 15.7893 24.0244 15.6691 24.1619 15.4973C24.2821 15.3513 24.368 15.1881 24.4367 15.0163C24.5398 14.7672 24.6085 14.5095 24.6601 14.2518C24.746 13.831 24.7803 13.4015 24.7889 12.972C24.8061 12.3021 24.7803 11.6235 24.7116 10.9535C24.6686 10.5326 24.6171 10.1118 24.557 9.69948C24.4883 9.24424 24.4024 8.7976 24.3079 8.34236C24.1619 7.62085 23.9901 6.91653 23.7668 6.2122C23.5606 5.55082 23.3201 4.89803 23.0195 4.271C22.779 3.78141 22.5127 3.3004 22.1777 2.86235C21.9716 2.57031 21.7311 2.30404 21.4476 2.06354C21.1642 1.82303 20.855 1.62548 20.5114 1.47946C20.0476 1.29049 19.558 1.22178 19.0598 1.23037C18.7592 1.23896 18.45 1.26473 18.1579 1.31626C17.7886 1.37639 17.4192 1.46228 17.0499 1.54818C16.5173 1.67702 15.9848 1.81445 15.4523 1.94329C15.0314 2.04636 14.6019 2.13225 14.1724 2.19238C13.9234 2.22673 13.6743 2.26109 13.4252 2.28686C13.1847 2.32122 12.9356 2.31263 12.6951 2.30404C12.446 2.28686 12.1969 2.2525 11.9478 2.21815C11.4153 2.13225 10.8827 2.02918 10.3588 1.89175C9.83482 1.76291 9.31087 1.62548 8.78692 1.49664C8.3145 1.38498 7.84209 1.28191 7.36108 1.23896C7.01751 1.2046 6.68252 1.2046 6.33895 1.24755C6.04691 1.28191 5.75487 1.35921 5.47142 1.47087C5.05913 1.64266 4.69838 1.90034 4.37199 2.20956C4.1143 2.45865 3.89098 2.73351 3.68484 3.02555C3.41857 3.42066 3.18665 3.83295 2.98051 4.26241C2.69706 4.84649 2.46515 5.45633 2.26759 6.07477C1.98414 6.96806 1.75223 7.87854 1.57185 8.80619C1.50314 9.18412 1.44301 9.56205 1.38289 9.94857C1.33994 10.2664 1.30558 10.5842 1.27982 10.8934C1.23687 11.3486 1.20251 11.7953 1.20251 12.0444Z" fill="#696969"/>
<path d="M6.94868 10.4126C6.50203 10.404 6.10692 10.2666 5.76335 9.97452C5.68604 9.90581 5.60874 9.83709 5.54002 9.75979C5.29952 9.50211 5.16209 9.19289 5.11056 8.84931C5.09338 8.7033 5.0762 8.69471 4.93018 8.67753C4.28598 8.57445 3.82215 8.2137 3.5387 7.62963C3.17795 6.90812 3.33256 6.07495 3.85651 5.52523C4.12278 5.25037 4.432 5.06141 4.80134 4.97551C4.87005 4.95833 4.94736 4.94974 5.01607 4.93256C5.06761 4.92398 5.08479 4.89821 5.10197 4.84667C5.10197 4.82949 5.10197 4.8209 5.11056 4.80372C5.20504 4.15093 5.73758 3.39507 6.691 3.24046C7.67878 3.07726 8.59784 3.75582 8.80398 4.64912C8.82116 4.71783 8.82975 4.77796 8.84693 4.84667C8.86411 4.91539 8.8727 4.92398 8.95 4.94115C9.2764 4.99269 9.55985 5.12153 9.81753 5.31909C10.1525 5.55959 10.3758 5.88598 10.4875 6.28109C10.6765 6.94248 10.539 7.53514 10.0924 8.05909C9.87765 8.30818 9.61138 8.49715 9.29358 8.60022C9.1905 8.63458 9.07884 8.66035 8.96718 8.67753C8.8727 8.68612 8.84693 8.7033 8.83834 8.79778C8.7868 9.12417 8.64937 9.39903 8.46041 9.6653C8.2285 9.98311 7.91928 10.1893 7.55852 10.3181C7.3352 10.3868 7.14624 10.4126 6.94868 10.4126ZM6.97445 9.21007C7.35238 9.21866 7.65301 8.90944 7.65301 8.56586C7.65301 8.49715 7.65301 8.42844 7.65301 8.36831C7.65301 8.27383 7.64442 8.17934 7.65301 8.07627C7.67878 7.82718 7.79903 7.6468 8.03094 7.54373C8.11683 7.50937 8.20273 7.49219 8.28862 7.49219C8.37451 7.49219 8.469 7.49219 8.55489 7.49219C8.64078 7.49219 8.73527 7.4922 8.82116 7.48361C8.93282 7.47502 9.03589 7.43207 9.13038 7.36335C9.30217 7.23451 9.38806 7.06273 9.39665 6.84799C9.41383 6.46147 9.13897 6.15225 8.76104 6.13508C8.68373 6.13508 8.61502 6.13508 8.53771 6.13508C8.44323 6.13508 8.34875 6.13508 8.24567 6.13508C8.07389 6.12649 7.91928 6.05777 7.80762 5.92034C7.71313 5.80868 7.6616 5.67984 7.65301 5.53382C7.64442 5.43934 7.65301 5.34485 7.65301 5.24178C7.65301 5.16448 7.65301 5.07858 7.65301 5.00128C7.62724 4.80372 7.54135 4.64053 7.37815 4.51169C7.26649 4.42579 7.13765 4.39144 7.00881 4.38285C6.63946 4.37426 6.42473 4.58899 6.33884 4.81231C6.31307 4.88962 6.30448 4.96692 6.29589 5.04423C6.29589 5.17307 6.29589 5.29332 6.29589 5.42216C6.29589 5.49946 6.2873 5.56818 6.27871 5.64548C6.23576 5.86881 6.09833 6.01482 5.89219 6.09213C5.81488 6.12649 5.73758 6.13508 5.65169 6.13508C5.51426 6.13508 5.36824 6.13508 5.23081 6.13508C5.11915 6.13508 5.01607 6.16084 4.913 6.21238C4.62955 6.34122 4.52648 6.65044 4.55225 6.87376C4.58661 7.14862 4.78416 7.37194 5.05043 7.44066C5.13632 7.46643 5.22222 7.46643 5.3167 7.46643C5.45413 7.46643 5.60015 7.46643 5.73758 7.46643C5.99526 7.47502 6.23576 7.68975 6.2873 7.93884C6.30448 8.00756 6.30448 8.08486 6.31307 8.16217C6.31307 8.29101 6.31307 8.41126 6.31307 8.5401C6.31307 8.62599 6.33025 8.71188 6.35601 8.79778C6.42473 9.00392 6.65664 9.21866 6.97445 9.21007Z" fill="#696969"/>
<path d="M17.5051 4.52039C17.4879 3.90196 18.0119 3.3866 18.6303 3.3866C19.1886 3.37801 19.7727 3.82465 19.7727 4.52898C19.7727 5.19036 19.2316 5.65419 18.6389 5.65419C17.9517 5.6456 17.4879 5.0787 17.5051 4.52039Z" fill="#696969"/>
<path d="M17.4618 6.8226C17.4704 7.35514 17.0495 7.94781 16.328 7.94781C15.5979 7.94781 15.1856 7.34655 15.1942 6.79683C15.2028 6.20417 15.6924 5.67163 16.3366 5.68022C16.9808 5.68881 17.4704 6.22135 17.4618 6.8226Z" fill="#696969"/>
<path d="M18.6384 10.2404C17.9856 10.2489 17.5046 9.69063 17.5046 9.11514C17.5046 8.59119 17.8998 7.98135 18.6213 7.97276C19.2912 7.96417 19.7722 8.49671 19.7722 9.10655C19.7636 9.77652 19.2225 10.2489 18.6384 10.2404Z" fill="#696969"/>
<path d="M19.7988 6.78793C19.816 6.14372 20.3657 5.66272 20.9756 5.68849C21.5167 5.70567 22.075 6.15231 22.0578 6.83946C22.0492 7.48367 21.5253 7.97326 20.8897 7.95608C20.2283 7.92172 19.7816 7.38059 19.7988 6.78793Z" fill="#696969"/>
</svg>
