<svg width="19" height="21" viewBox="0 0 19 21" fill="none" xmlns="http://www.w3.org/2000/svg">
<path fill-rule="evenodd" clip-rule="evenodd" d="M7.55049 0.696254L1.1759 5.77117C0.433225 6.39007 0 7.25651 0 8.24674V19.4487C0 20.0676 0.495114 20.5008 1.05212 20.5008H6.06515C6.62215 20.5008 7.11726 20.0676 7.11726 19.4487V12.7028C7.11726 12.4552 7.36482 12.2077 7.61238 12.2077H11.3257C11.6352 12.2077 11.8827 12.4552 11.8827 12.7028V19.4487C11.8827 20.0676 12.316 20.5008 12.9349 20.5008H17.9479C18.5049 20.5008 19 20.0676 19 19.4487V8.24674C19 7.25651 18.5668 6.39007 17.8241 5.77117L11.4495 0.696254C10.2736 -0.232085 8.66449 -0.232085 7.55049 0.696254ZM10.8299 1.48114C10.8294 1.48074 10.8289 1.48035 10.8284 1.47995C10.0058 0.8316 8.92373 0.853593 8.19067 1.46448L8.18208 1.47164L1.80819 6.54599C1.28628 6.98439 1 7.57225 1 8.24674V19.4487C1 19.4683 1.00353 19.4764 1.00413 19.4777C1.00509 19.48 1.00656 19.4824 1.00971 19.4855C1.0176 19.493 1.03275 19.5008 1.05212 19.5008H6.06515C6.08452 19.5008 6.09967 19.493 6.10755 19.4855C6.1107 19.4824 6.11217 19.48 6.11314 19.4777C6.11374 19.4764 6.11726 19.4683 6.11726 19.4487V12.7028C6.11726 12.2538 6.3317 11.8885 6.56488 11.6553C6.79806 11.4221 7.16337 11.2077 7.61238 11.2077H11.3257C12.1106 11.2077 12.8827 11.8291 12.8827 12.7028V19.4487C12.8827 19.4713 12.8851 19.4868 12.8872 19.4963C12.8967 19.4985 12.9122 19.5008 12.9349 19.5008H17.9479C17.9673 19.5008 17.9824 19.493 17.9903 19.4855C17.9934 19.4824 17.9949 19.48 17.9959 19.4777C17.9965 19.4763 18 19.4682 18 19.4487V8.24674C18 7.57225 17.7137 6.9844 17.1918 6.54599L10.8299 1.48114Z" fill="#696969"/>
</svg>
