<svg width="30" height="23" viewBox="0 0 30 23" fill="none" xmlns="http://www.w3.org/2000/svg">
<path d="M2 5.5L3 6H4L5 8L6.5 12L8.5 16.5L10 17H12.5H15L17 19L18 20.5L17.5 21.5H15L10 22L8.5 21.5H7L5.5 20L2.5 12.5L1 9.5L0.5 7L2 5.5Z" fill="white" stroke="black" stroke-width="0.1"/>
<path d="M26.5 14H24H23.5V15H23L22 15.5L21.5 16L21 16.5V18.5V20.5L22 21.5L25 22L29 21.5L29.5 21V18L29 17.5V16L28.5 15.5H27.5V15L26.5 14Z" fill="white" stroke="white" stroke-width="0.3"/>
<path d="M6.5 0.5L5.5 1.5L5 3L5.5 4.5L6.5 5L8 5.5L9 4.5L9.5 3V1.5L8 1L6.5 0.5Z" fill="white"/>
<path d="M7.5 6.5L8.5 6H10L11.5 7.5L13 8H14.5L16.5 8.5L17 9L16.5 10L15 10.5H12.5L13.5 12.5H14.5H17.5L19 14L20 15.5L19.5 17V19.5L17.5 17L16.5 15.5H15.5H13L9.5 15L8.5 13.5L7.5 10.5L7 8L7.5 6.5Z" fill="white"/>
<path d="M6.5 0.5L5.5 1.5L5 3L5.5 4.5L6.5 5L8 5.5L9 4.5L9.5 3V1.5L8 1L6.5 0.5Z" stroke="white" stroke-width="0.1"/>
<path d="M7.5 6.5L8.5 6H10L11.5 7.5L13 8H14.5L16.5 8.5L17 9L16.5 10L15 10.5H12.5L13.5 12.5H14.5H17.5L19 14L20 15.5L19.5 17V19.5L17.5 17L16.5 15.5H15.5H13L9.5 15L8.5 13.5L7.5 10.5L7 8L7.5 6.5Z" stroke="white" stroke-width="0.1"/>
<path fill-rule="evenodd" clip-rule="evenodd" d="M9.74704 5.41323C10.2194 5.54863 10.6591 5.83006 11.1003 6.22156L11.105 6.22569L11.1095 6.22995C11.3684 6.47318 11.7883 6.86196 12.1447 7.19092C12.3226 7.35519 12.4843 7.50419 12.6015 7.61213L12.6659 7.67144H15.9272C16.8921 7.67144 17.6905 8.54614 17.5232 9.55537C17.3913 10.3834 16.6249 10.9015 15.8659 10.9015H13.3151L13.7321 11.8623H16.8464C17.4314 11.8623 17.9966 12.1319 18.3318 12.6201L20.4406 15.2266L20.2882 15.4875C20.1106 15.7913 20.0108 16.1439 20.0108 16.4905V20.3483L19.3782 20.0325C19.2695 19.9782 19.2006 19.903 19.165 19.8603C19.1511 19.8436 19.1369 19.8251 19.1309 19.8173L19.1247 19.8111L15.9536 15.8462C15.9536 15.8462 15.9537 15.8463 15.9536 15.8462C15.9149 15.798 15.857 15.7653 15.774 15.7653H10.5649C9.80226 15.7653 9.09872 15.2894 8.78655 14.5882L8.78457 14.5837L6.51392 9.16167L6.51266 9.15852C6.22117 8.43103 6.25797 7.6006 6.58479 6.91182C6.91176 6.22268 7.52809 5.67756 8.29315 5.45712C8.79003 5.29884 9.26767 5.27582 9.74704 5.41323ZM12.1993 8.43066L12.009 8.25551C11.8916 8.1474 11.7297 7.99815 11.5514 7.83357C11.1974 7.50678 10.7776 7.11818 10.5152 6.87171C10.1311 6.53158 9.80618 6.34004 9.50603 6.254C9.21387 6.17025 8.91231 6.17699 8.55365 6.29208L8.54685 6.29426L8.53998 6.29622C8.02131 6.44416 7.59856 6.81553 7.37498 7.28675C7.1507 7.75944 7.12586 8.3348 7.32335 8.83024L9.5874 14.2365C9.76639 14.6343 10.1646 14.8907 10.5649 14.8907H15.774C16.1198 14.8907 16.4297 15.0417 16.6361 15.2993L19.1362 18.4252V16.4905C19.1362 16.0854 19.2279 15.6842 19.3916 15.3206L17.6276 13.1403L17.6165 13.1237C17.4598 12.889 17.1736 12.7369 16.8464 12.7369H13.1583L11.982 10.0269H15.8659C16.2707 10.0269 16.6069 9.75042 16.6596 9.41699L16.6602 9.4133C16.7367 8.95503 16.3712 8.54607 15.9272 8.54607H12.3248L12.1993 8.43066Z" fill="#696969"/>
<path fill-rule="evenodd" clip-rule="evenodd" d="M1.80058 5.21072C3.00197 4.83975 4.29703 5.4767 4.77867 6.62332L4.77893 6.62393L8.27289 14.977C8.63578 15.8569 9.45901 16.4195 10.4118 16.4195H14.7629C15.2014 16.4195 15.5662 16.601 15.8301 16.9085L15.8341 16.9131L18.2972 19.8639L18.3077 19.8789C18.5949 20.2885 18.6985 20.8192 18.4702 21.3207C18.2453 21.8147 17.7516 22.1274 17.2142 22.1274H7.50091C6.52811 22.1274 5.63335 21.5322 5.25885 20.6349L0.206594 8.52981C-0.0965586 7.8786 -0.0500743 7.13334 0.241655 6.51445L0.246048 6.50513L0.250874 6.49603C0.575078 5.88467 1.12314 5.40077 1.80058 5.21072ZM3.97219 6.9618C3.65797 6.21411 2.81212 5.81134 2.05441 6.04773L2.04775 6.04981L2.04103 6.05167C1.6215 6.16801 1.25513 6.47468 1.02846 6.89665C0.835453 7.31256 0.821256 7.78255 1.00216 8.16632L1.00636 8.17524L6.066 20.298C6.30432 20.8691 6.88035 21.2528 7.50091 21.2528H17.2142C17.4123 21.2528 17.5927 21.1372 17.6742 20.9582C17.7505 20.7906 17.7341 20.5924 17.6009 20.3947L15.1648 17.4762C15.0614 17.3567 14.9364 17.2942 14.7629 17.2942H10.4118C9.09762 17.2942 7.96008 16.5113 7.46478 15.3116C7.46463 15.3113 7.46448 15.3109 7.46433 15.3105L3.97219 6.9618C3.97216 6.96172 3.97222 6.96189 3.97219 6.9618Z" fill="#696969"/>
<path fill-rule="evenodd" clip-rule="evenodd" d="M7.24654 0.874633C6.11663 0.874633 5.2019 1.78888 5.2019 2.91512C5.2019 4.04135 6.11663 4.9556 7.24654 4.9556C8.37646 4.9556 9.29118 4.04135 9.29118 2.91512C9.29118 1.78888 8.37646 0.874633 7.24654 0.874633ZM4.32727 2.91512C4.32727 1.30445 5.63496 0 7.24654 0C8.85812 0 10.1658 1.30445 10.1658 2.91512C10.1658 4.52578 8.85812 5.83023 7.24654 5.83023C5.63496 5.83023 4.32727 4.52578 4.32727 2.91512Z" fill="#696969"/>
<path fill-rule="evenodd" clip-rule="evenodd" d="M22.8451 14.9217C22.8817 13.9477 23.6766 13.1781 24.6599 13.1781H25.9469C26.9302 13.1781 27.7251 13.9477 27.7617 14.9217H28.4595C29.3286 14.9217 29.9999 15.6526 29.9999 16.4909V20.59C29.9999 21.444 29.3131 22.1285 28.4595 22.1285H22.1473C21.2937 22.1285 20.6069 21.444 20.6069 20.59V16.4603C20.6069 15.6063 21.2937 14.9217 22.1473 14.9217H22.8451ZM24.6599 14.0527C24.1347 14.0527 23.7184 14.4694 23.7184 14.992V15.7964H22.1473C21.7753 15.7964 21.4816 16.0907 21.4816 16.4603V20.59C21.4816 20.9596 21.7753 21.2539 22.1473 21.2539H28.4595C28.8315 21.2539 29.1253 20.9596 29.1253 20.59V16.4909C29.1253 16.1056 28.8161 15.7964 28.4595 15.7964H26.8884V14.992C26.8884 14.4694 26.4721 14.0527 25.9469 14.0527H24.6599ZM26.7519 14.992C26.7519 14.5124 26.3477 14.1876 25.9469 14.1876H24.6599C24.1814 14.1876 23.8549 14.5901 23.8549 14.992V15.7964H26.7519V14.992Z" fill="#696969"/>
</svg>
