<svg width="18" height="20" viewBox="0 0 18 20" fill="none" xmlns="http://www.w3.org/2000/svg">
<circle cx="8.5" cy="4.5" r="3.5" fill="white"/>
<path d="M5 11.5L8.5 10.5H10.5L14 12L16.5 15V17L14.5 18L10.5 18.5H5L1 17V14.5L5 11.5Z" fill="white"/>
<path d="M8.76881 9.19142C6.23419 9.19142 4.1731 7.13033 4.1731 4.59571C4.1731 2.06109 6.23419 0 8.76881 0C11.3034 0 13.3645 2.06109 13.3645 4.59571C13.3645 7.13033 11.3034 9.19142 8.76881 9.19142ZM8.76881 1.74707C7.1962 1.74707 5.91767 3.02559 5.91767 4.5982C5.91767 6.17081 7.1962 7.44934 8.76881 7.44934C10.3414 7.44934 11.6199 6.17081 11.6199 4.5982C11.6199 3.02559 10.3414 1.74707 8.76881 1.74707Z" fill="#696969"/>
<path d="M8.96569 19.5093C7.18622 19.5093 5.53137 19.3871 4.46718 19.2476C2.18677 18.946 0.860889 18.2881 0.295148 17.1765C-0.0562596 16.4837 -0.00641434 15.8282 0.0160159 15.5466V15.5391C0.150598 13.8219 1.50638 12.177 3.83415 10.9085C8.2878 8.48353 13.0181 10.582 13.5415 10.8287C14.8748 11.4568 15.8991 12.2967 16.582 13.3185C17.8954 15.2849 17.7085 16.5609 17.3197 17.2887C17.0954 17.7074 16.7515 18.0488 16.2929 18.3055C14.648 19.2276 11.6648 19.5093 8.96569 19.5093ZM1.75311 15.6737V15.6787C1.74065 15.8581 1.71822 16.1273 1.84782 16.384C2.11698 16.9148 3.10142 17.3061 4.69397 17.5155C7.81676 17.9267 13.4393 17.9042 15.4356 16.7827C15.605 16.688 15.7147 16.5858 15.7795 16.4637C15.9515 16.1397 15.8717 15.3995 15.129 14.288C14.6231 13.5328 13.838 12.8998 12.7938 12.4063C12.3502 12.197 8.36506 10.425 4.66406 12.4387C2.89955 13.4032 1.84034 14.5796 1.75311 15.6737Z" fill="#696969"/>
</svg>
