<svg width="25" height="20" viewBox="0 0 25 20" fill="none" xmlns="http://www.w3.org/2000/svg">
<path d="M6.6925 13.9057L13.8491 6.9206C13.8491 6.9206 14.9643 5.62562 16.4182 8.92872C16.4182 8.92872 16.4746 8.88098 17.1795 8.27974C17.4129 8.08131 17.9911 7.90228 19.5228 10.5146C19.5228 10.5146 20.7844 12.6167 22.728 12.8331V14.8665H6.67725L6.6925 13.9057Z" fill="white"/>
<path d="M9.29498 8.41706C10.2041 8.41706 10.9411 7.69634 10.9411 6.80729C10.9411 5.91823 10.2041 5.19751 9.29498 5.19751C8.38586 5.19751 7.64886 5.91823 7.64886 6.80729C7.64886 7.69634 8.38586 8.41706 9.29498 8.41706Z" fill="white"/>
<path d="M19.6963 8.98202L21.2982 8.97904V8.97605L21.315 8.97904C21.5545 8.97904 21.7406 8.83283 21.7406 8.5986C21.7406 8.44045 21.646 8.3032 21.5133 8.23009C21.4797 7.90187 21.1975 7.64526 20.8542 7.64526C20.5781 7.64526 20.3416 7.81087 20.2409 8.0451C20.2013 8.02123 20.1555 8.00482 20.1052 8.00482C19.9663 8.00482 19.8519 8.11522 19.8519 8.25247L19.8534 8.26888C19.8214 8.25844 19.7878 8.25247 19.7512 8.25247C19.5575 8.25247 19.3988 8.42852 19.3988 8.61948C19.4019 8.79255 19.5285 8.98202 19.6963 8.98202Z" fill="white"/>
<path d="M23.8399 16.965H5.41836C4.77914 16.965 4.25891 16.4562 4.25891 15.8311V4.00025C4.25891 3.37514 4.77914 2.86639 5.41836 2.86639H23.8399C24.4792 2.86639 24.9994 3.37514 24.9994 4.00025V15.8311C24.9994 16.4577 24.4792 16.965 23.8399 16.965ZM5.41836 3.91223C5.36955 3.91223 5.32683 3.954 5.32683 4.00174V15.8326C5.32683 15.8804 5.36955 15.9221 5.41836 15.9221H23.8399C23.8888 15.9221 23.9315 15.8804 23.9315 15.8326V4.00174C23.9315 3.954 23.8888 3.91223 23.8399 3.91223H5.41836V3.91223Z" fill="white"/>
<path d="M4.96532 19.1662C4.78682 19.1662 4.60985 19.1259 4.44509 19.0453C4.16743 18.9096 3.96148 18.6768 3.86384 18.3889L0.0590004 7.15774C-0.142378 6.56395 0.188676 5.92094 0.794338 5.7255L4.66173 4.47229L4.99736 5.46292L1.12997 6.71613C1.0842 6.73105 1.05674 6.78327 1.072 6.82952L4.87836 18.0592C4.88751 18.0875 4.90887 18.1024 4.92413 18.1099C4.93938 18.1173 4.96532 18.1248 4.99431 18.1159L11.4811 16.0137L11.8168 17.0044L5.32994 19.1065C5.21094 19.1468 5.08737 19.1662 4.96532 19.1662Z" fill="white"/>
<path d="M9.86841 3.88498L9.53278 2.89434L18.2805 0.0582146C18.5735 -0.037268 18.8877 -0.0148893 19.1654 0.122367C19.443 0.258131 19.649 0.49087 19.7451 0.778809L20.575 3.22555L19.562 3.55377L18.7321 1.10703C18.723 1.07868 18.7016 1.06377 18.6864 1.05631C18.6711 1.04885 18.6452 1.04139 18.6162 1.05034L9.86841 3.88498Z" fill="white"/>
</svg>
