<svg width="24" height="25" viewBox="0 0 24 25" fill="none" xmlns="http://www.w3.org/2000/svg">
<path d="M21.5255 15.066H20.8421V13.8579H21.5255C22.0346 13.8579 22.4488 13.4437 22.4488 12.9346V2.13132C22.4488 1.62222 22.0346 1.20804 21.5255 1.20804H2.13132C1.62222 1.20804 1.20804 1.62222 1.20804 2.13132V12.9346C1.20804 13.4437 1.62222 13.8579 2.13132 13.8579H2.95452V15.066H2.13132C0.956076 15.066 0 14.1099 0 12.9346V2.13132C0 0.956076 0.956076 0 2.13132 0H21.5255C22.7008 0 23.6568 0.956076 23.6568 2.13132V12.9346C23.6568 14.1099 22.7008 15.066 21.5255 15.066Z" fill="#696969"/>
<path d="M5.11836 17.0233C3.72393 17.0233 2.58838 15.8895 2.58838 14.495C2.58838 13.1006 3.72221 11.9668 5.11663 11.9668C6.51105 11.9668 7.64488 13.1006 7.64488 14.495C7.64661 15.8895 6.51105 17.0233 5.11836 17.0233ZM5.11836 13.1731C4.39008 13.1731 3.79814 13.765 3.79814 14.4933C3.79814 15.2216 4.39008 15.8135 5.11836 15.8135C5.84663 15.8135 6.43857 15.2216 6.43857 14.4933C6.43857 13.7668 5.8449 13.1731 5.11836 13.1731Z" fill="#696969"/>
<path d="M11.8249 17.6771C10.0698 17.6771 8.64258 16.2499 8.64258 14.4948C8.64258 12.7397 10.0698 11.3125 11.8249 11.3125C13.58 11.3125 15.0072 12.7397 15.0072 14.4948C15.0072 16.2499 13.58 17.6771 11.8249 17.6771ZM11.8249 12.5223C10.7359 12.5223 9.85062 13.4076 9.85062 14.4965C9.85062 15.5855 10.7359 16.4708 11.8249 16.4708C12.9139 16.4708 13.7992 15.5855 13.7992 14.4965C13.7992 13.4076 12.9139 12.5223 11.8249 12.5223Z" fill="#696969"/>
<path d="M18.5068 17.0253C17.1123 17.0253 15.9785 15.8914 15.9785 14.497C15.9785 13.1026 17.1123 11.9688 18.5068 11.9688C19.9012 11.9688 21.035 13.1026 21.035 14.497C21.035 15.8914 19.8995 17.0253 18.5068 17.0253ZM18.5068 13.1751C17.7785 13.1751 17.1866 13.767 17.1866 14.4953C17.1866 15.2235 17.7785 15.8155 18.5068 15.8155C19.235 15.8155 19.827 15.2235 19.827 14.4953C19.827 13.7687 19.235 13.1751 18.5068 13.1751Z" fill="#696969"/>
<path d="M11.9613 24.8217C10.7291 24.8217 9.58314 24.7372 8.84624 24.6405C7.26716 24.4317 6.34906 23.9761 5.95731 23.2064C5.71397 22.7266 5.74849 22.2728 5.76402 22.0778V22.0726C5.85721 20.8835 6.79603 19.7445 8.4079 18.8661C11.4918 17.1869 14.7674 18.64 15.1298 18.8109C16.053 19.2458 16.7623 19.8274 17.2352 20.5349C18.1447 21.8966 18.0152 22.7801 17.746 23.2841C17.5907 23.574 17.3526 23.8104 17.035 23.9882C15.896 24.6267 13.8303 24.8217 11.9613 24.8217ZM6.96688 22.1658V22.1692C6.95825 22.2935 6.94272 22.4799 7.03246 22.6576C7.21884 23.0252 7.90052 23.2962 9.00329 23.4411C11.1657 23.7259 15.059 23.7103 16.4413 22.9337C16.5587 22.8682 16.6346 22.7974 16.6795 22.7128C16.7986 22.4885 16.7434 21.9759 16.2291 21.2062C15.8787 20.6833 15.3351 20.245 14.612 19.9033C14.3048 19.7583 11.5453 18.5313 8.98258 19.9257C7.76073 20.5936 7.02728 21.4082 6.96688 22.1658Z" fill="#696969"/>
<path d="M18.5692 23.4781C17.91 23.4781 17.3836 23.4487 17.1627 23.4332L17.2438 22.2286C19.0076 22.346 21.17 22.2459 22.0294 21.754C22.0984 21.7143 22.1416 21.6764 22.1657 21.6298C22.2261 21.5159 22.2192 21.1604 21.8206 20.5512C21.56 20.1543 21.1544 19.8212 20.6143 19.5606C20.3813 19.4484 18.2914 18.501 16.3568 19.5761C16.2584 19.6313 15.9944 19.778 15.7096 19.9989L14.9658 19.0463C15.3248 18.7667 15.6475 18.5873 15.77 18.5199C18.2362 17.1497 20.8472 18.3336 21.1372 18.4734C21.8792 18.8306 22.4487 19.3069 22.8301 19.8885C23.5705 21.0189 23.4583 21.7644 23.234 22.1907C23.1011 22.4426 22.8975 22.648 22.63 22.8016C21.6463 23.3642 19.8566 23.4781 18.5692 23.4781Z" fill="#696969"/>
<path d="M5.28068 23.951C4.27111 23.951 3.34955 23.8837 2.74898 23.8077C1.40116 23.6369 0.646995 23.2693 0.301841 22.6187C0.0826687 22.2045 0.113732 21.8179 0.127539 21.6523C0.206924 20.6651 0.999051 19.7315 2.35723 19.0205C4.92172 17.6778 7.63808 18.8375 7.94009 18.9756C8.1213 19.0584 8.2956 19.1482 8.45782 19.2431L7.84517 20.2837C7.72092 20.2112 7.58458 20.1405 7.44307 20.0749C7.19629 19.9627 4.97522 19.0153 2.91983 20.0904C1.97066 20.5875 1.37872 21.2053 1.33558 21.7455C1.32867 21.8335 1.31832 21.9508 1.37354 22.0526C1.44948 22.1976 1.75149 22.4616 2.9043 22.6083C3.79997 22.7222 5.31002 22.793 6.66302 22.6946L6.75104 23.8992C6.25402 23.9355 5.75699 23.951 5.28068 23.951Z" fill="#696969"/>
</svg>
