<svg width="19" height="25" viewBox="0 0 19 25" fill="none" xmlns="http://www.w3.org/2000/svg">
<path d="M12.7538 16.7118C11.3594 16.7118 10.2256 15.5779 10.2256 14.1835C10.2256 12.7891 11.3594 11.6553 12.7538 11.6553C14.1483 11.6553 15.2821 12.7891 15.2821 14.1835C15.2821 15.5779 14.1465 16.7118 12.7538 16.7118ZM12.7538 12.8616C12.0256 12.8616 11.4336 13.4535 11.4336 14.1818C11.4336 14.9101 12.0256 15.502 12.7538 15.502C13.4821 15.502 14.074 14.9101 14.074 14.1818C14.074 13.4553 13.4821 12.8616 12.7538 12.8616Z" fill="white"/>
<path d="M6.07196 17.3646C4.31686 17.3646 2.88965 15.9374 2.88965 14.1823C2.88965 12.4272 4.31686 11 6.07196 11C7.82707 11 9.25428 12.4272 9.25428 14.1823C9.25428 15.9374 7.82707 17.3646 6.07196 17.3646ZM6.07196 12.2098C4.983 12.2098 4.09769 13.0951 4.09769 14.184C4.09769 15.273 4.983 16.1583 6.07196 16.1583C7.16092 16.1583 8.04624 15.273 8.04624 14.184C8.04624 13.0951 7.16092 12.2098 6.07196 12.2098Z" fill="white"/>
<path d="M6.20832 24.5092C4.97612 24.5092 3.83021 24.4247 3.09331 24.328C1.51423 24.1192 0.596125 23.6636 0.204376 22.8939C-0.0389572 22.4141 -0.00444163 21.9603 0.0110903 21.7653V21.7601C0.104282 20.571 1.0431 19.432 2.65497 18.5536C5.73891 16.8744 9.01442 18.3275 9.37683 18.4984C10.3001 18.9333 11.0094 19.5149 11.4823 20.2224C12.3918 21.5841 12.2623 22.4676 11.9931 22.9716C11.8378 23.2615 11.5996 23.4979 11.2821 23.6757C10.1431 24.3142 8.07733 24.5092 6.20832 24.5092ZM1.21395 21.8533V21.8567C1.20532 21.981 1.18979 22.1674 1.27953 22.3451C1.46591 22.7127 2.14759 22.9837 3.25036 23.1286C5.41274 23.4134 9.30608 23.3978 10.6884 22.6212C10.8058 22.5557 10.8817 22.4849 10.9266 22.4003C11.0457 22.176 10.9904 21.6634 10.4761 20.8937C10.1258 20.3708 9.5822 19.9325 8.8591 19.5908C8.55192 19.4458 5.79241 18.2188 3.22965 19.6132C2.0078 20.2811 1.27435 21.0957 1.21395 21.8533Z" fill="white"/>
<path d="M12.8163 23.1656C12.1571 23.1656 11.6307 23.1362 11.4098 23.1207L11.4909 21.9161C13.2546 22.0335 15.417 21.9334 16.2765 21.4415C16.3455 21.4018 16.3886 21.3639 16.4128 21.3173C16.4732 21.2034 16.4663 20.8479 16.0676 20.2387C15.8071 19.8418 15.4015 19.5087 14.8613 19.2481C14.6283 19.1359 12.5384 18.1885 10.6039 19.2636C10.5055 19.3188 10.2414 19.4655 9.9567 19.6864L9.21289 18.7338C9.57185 18.4542 9.89457 18.2748 10.0171 18.2074C12.4832 16.8372 15.0943 18.0211 15.3842 18.1609C16.1263 18.5181 16.6958 18.9944 17.0772 19.576C17.8176 20.7064 17.7054 21.4519 17.481 21.8782C17.3482 22.1301 17.1445 22.3355 16.877 22.4891C15.8933 23.0517 14.1037 23.1656 12.8163 23.1656Z" fill="white"/>
<path d="M12.4838 10C12.3112 10 12.1405 9.93206 12.0125 9.80333L10.0419 7.82228H6.48501C5.66692 7.82228 5 7.15359 5 6.32934V1.49294C5 0.668693 5.66514 0 6.48501 0H17.0882C17.9063 0 18.5732 0.668693 18.5732 1.49294V6.33113C18.5732 7.15358 17.9081 7.82407 17.0882 7.82407H13.1507V9.32952C13.1507 9.60129 12.9888 9.84445 12.7399 9.94815C12.6563 9.98212 12.5691 10 12.4838 10ZM6.48501 1.25156C6.35163 1.25156 6.24492 1.35884 6.24492 1.49294V6.33113C6.24492 6.46344 6.35163 6.5725 6.48501 6.5725H10.5595L11.9075 7.92777V6.5725H17.09C17.2216 6.5725 17.3301 6.46522 17.3301 6.33113V1.49294C17.3301 1.36063 17.2234 1.25156 17.09 1.25156H6.48501Z" fill="white"/>
<path d="M8.99587 4.7822C8.50778 4.7822 8.1095 4.38179 8.1095 3.8911C8.1095 3.40041 8.50778 3 8.99587 3C9.48395 3 9.88224 3.40041 9.88224 3.8911C9.88224 4.38179 9.48395 4.7822 8.99587 4.7822ZM8.99587 3.43827C8.74676 3.43827 8.54399 3.64212 8.54399 3.89256C8.54399 4.143 8.74676 4.34684 8.99587 4.34684C9.24498 4.34684 9.44774 4.143 9.44774 3.89256C9.44774 3.64212 9.24498 3.43827 8.99587 3.43827Z" fill="white"/>
<path d="M11.7865 4.7822C11.2984 4.7822 10.9001 4.38179 10.9001 3.8911C10.9001 3.40041 11.2984 3 11.7865 3C12.2746 3 12.6729 3.40041 12.6729 3.8911C12.6729 4.38179 12.2746 4.7822 11.7865 4.7822ZM11.7865 3.43827C11.5374 3.43827 11.3346 3.64212 11.3346 3.89256C11.3346 4.143 11.5374 4.34684 11.7865 4.34684C12.0356 4.34684 12.2384 4.143 12.2384 3.89256C12.2384 3.64212 12.0356 3.43827 11.7865 3.43827Z" fill="white"/>
<path d="M14.5759 4.7822C14.0879 4.7822 13.6896 4.38179 13.6896 3.8911C13.6896 3.40041 14.0879 3 14.5759 3C15.064 3 15.4623 3.40041 15.4623 3.8911C15.4623 4.38179 15.0655 4.7822 14.5759 4.7822ZM14.5759 3.43827C14.3268 3.43827 14.1241 3.64212 14.1241 3.89256C14.1241 4.143 14.3268 4.34684 14.5759 4.34684C14.8251 4.34684 15.0278 4.143 15.0278 3.89256C15.0278 3.64212 14.8251 3.43827 14.5759 3.43827Z" fill="white"/>
</svg>
