<svg width="24" height="24" viewBox="0 0 24 24" fill="none" xmlns="http://www.w3.org/2000/svg">
<path d="M22.9248 23.9997H0.611374C0.274245 23.9997 0 23.7255 0 23.3883V21.3044C0 20.9673 0.274245 20.6931 0.611374 20.6931H22.9248C23.2619 20.6931 23.5362 20.9673 23.5362 21.3044V23.3883C23.5362 23.7255 23.2619 23.9997 22.9248 23.9997ZM1.22275 22.777H22.3134V21.9158H1.22275V22.777Z" fill="white"/>
<path d="M16.8268 21.9214H6.86314C6.52602 21.9214 6.25177 21.6472 6.25177 21.31V13.8844C6.25177 13.5473 6.52602 13.2731 6.86314 13.2731H16.8268C17.1639 13.2731 17.4382 13.5473 17.4382 13.8844V21.31C17.4382 21.6489 17.1639 21.9214 16.8268 21.9214ZM7.47452 20.6986H16.2154V14.4958H7.47452V20.6986Z" fill="white"/>
<path d="M19.2849 21.9161C19.0421 21.9161 18.8133 21.7711 18.7172 21.5318C18.5932 21.2209 18.7416 20.868 19.0508 20.7405C19.1748 20.6864 20.2072 20.1781 19.7757 18.4522L18.3608 13.2119C17.7058 10.8205 14.3083 9.66591 11.2899 9.76199C8.83213 9.84059 5.78924 10.7821 5.2949 13.1752C4.82152 15.6207 3.92192 18.3876 3.79092 18.7859C3.75423 19.0252 3.58479 20.4086 4.62238 20.7196C4.94554 20.8174 5.12895 21.158 5.03288 21.4812C4.93506 21.8043 4.59618 21.9877 4.27128 21.8917C2.53323 21.3711 2.4162 19.4601 2.59611 18.5221C2.60136 18.4959 2.60834 18.4697 2.61708 18.4435C2.62756 18.4138 3.611 15.4495 4.0966 12.9359C4.62238 10.3856 7.43121 8.66151 11.2514 8.53924C14.6437 8.43268 18.6788 9.74627 19.5417 12.8905L20.9601 18.1448C21.5278 20.4121 20.2613 21.5737 19.5137 21.8724C19.4369 21.9021 19.36 21.9161 19.2849 21.9161Z" fill="white"/>
<path fill-rule="evenodd" clip-rule="evenodd" d="M11.9198 1.22275C10.384 1.22275 9.13895 2.46779 9.13895 4.00363C9.13895 5.53947 10.384 6.78451 11.9198 6.78451C13.4557 6.78451 14.7007 5.53947 14.7007 4.00363C14.7007 2.46779 13.4557 1.22275 11.9198 1.22275ZM7.9162 4.00363C7.9162 1.79249 9.70868 0 11.9198 0C14.131 0 15.9235 1.79249 15.9235 4.00363C15.9235 6.21477 14.131 8.00726 11.9198 8.00726C9.70868 8.00726 7.9162 6.21477 7.9162 4.00363Z" fill="white"/>
</svg>
