<svg width="21" height="26" viewBox="0 0 21 26" fill="none" xmlns="http://www.w3.org/2000/svg">
<path d="M20.3323 15.6261H0.667674C0.29935 15.6261 0 15.3248 0 14.9539V13.5804C0 13.2096 0.29935 12.9082 0.667674 12.9082H20.3323C20.7006 12.9082 21 13.2096 21 13.5804V14.9539C21 15.3248 20.7006 15.6261 20.3323 15.6261ZM0.689746 14.9317H20.3103V13.6026H0.689746V14.9317Z" fill="#888888"/>
<path d="M19.1585 26H1.84175C1.47342 26 1.17407 25.6987 1.17407 25.3278V15.6019C1.17407 15.2311 1.47342 14.9297 1.84175 14.9297H19.1585C19.5268 14.9297 19.8262 15.2311 19.8262 15.6019V25.3278C19.8262 25.6987 19.5268 26 19.1585 26ZM1.86382 25.3056H19.1364V15.6241H1.86382V25.3056Z" fill="#888888"/>
<path d="M16.9983 11.2268H4.00215C3.63382 11.2268 3.33447 10.9254 3.33447 10.5546V1.25227C3.33447 0.881453 3.63382 0.580078 4.00215 0.580078H16.9983C17.3667 0.580078 17.666 0.881453 17.666 1.25227V10.5546C17.666 10.9254 17.3667 11.2268 16.9983 11.2268ZM4.02422 10.5324H16.9763V1.27449H4.02422V10.5324Z" fill="#888888"/>
<path d="M11.9258 13.6019H9.07441C8.70609 13.6019 8.40674 13.3006 8.40674 12.9298V11.2034C8.40674 10.8326 8.70609 10.5312 9.07441 10.5312H11.9272C12.2955 10.5312 12.5949 10.8326 12.5949 11.2034V12.9284C12.5935 13.2992 12.2941 13.6019 11.9258 13.6019ZM9.09648 12.9075H11.9051V11.2257H9.09648V12.9075Z" fill="#888888"/>
<path d="M16.3869 23.1455H4.61299C4.24466 23.1455 3.94531 22.8441 3.94531 22.4733V18.4652C3.94531 18.0943 4.24466 17.793 4.61299 17.793H16.3883C16.7567 17.793 17.056 18.0943 17.056 18.4652V22.4733C17.056 22.8441 16.7553 23.1455 16.3869 23.1455ZM4.63506 22.4511H16.3663V18.4874H4.63506V22.4511Z" fill="#888888"/>
</svg>
